<svg aria-hidden="true" style="position: absolute; width: 0; height: 0; overflow: hidden;" version="1.1" xmlns="http://www.w3.org/2000/svg" xmlns:xlink="http://www.w3.org/1999/xlink">
<defs>

<symbol id="icon-header__logo" viewBox="0 0 82 32">
<path d="M55.188 20.114c0.231 0.198 0.357 0.489 0.345 0.791 0 0.851-0.502 1.276-1.501 1.276h-8.603c-0.66 0.040-1.232-0.456-1.27-1.107-0.003-0.040-0.003-0.081-0.001-0.122 0-0.438 0.184-0.853 0.507-1.151l7.102-7.517h-5.497c-0.359 0.024-0.716-0.078-1.005-0.29-0.235-0.205-0.362-0.504-0.344-0.813 0-0.834 0.5-1.252 1.501-1.252h8.221c0.347-0.017 0.688 0.116 0.929 0.363 0.224 0.233 0.347 0.544 0.343 0.866-0.009 0.441-0.192 0.863-0.508 1.176l-7.076 7.492h5.853c0.359-0.024 0.718 0.078 1.006 0.288zM59.731 14.939h5.803c0.076-0.826-0.159-1.652-0.662-2.316-0.488-0.541-1.201-0.83-1.935-0.789-1.798 0-2.866 1.035-3.206 3.106v-0.001zM67.941 16.33c-0.201 0.193-0.474 0.299-0.752 0.288h-7.558c-0.022 0.926 0.319 1.823 0.952 2.506 0.679 0.602 1.573 0.908 2.483 0.853 0.545 0.007 1.091-0.065 1.616-0.212 0.505-0.154 0.989-0.367 1.438-0.641 0.194-0.11 0.412-0.169 0.636-0.175 0.263-0.011 0.517 0.106 0.675 0.314 0.165 0.222 0.251 0.49 0.241 0.764 0.003 0.48-0.235 0.93-0.636 1.203-0.553 0.378-1.168 0.659-1.82 0.827-0.766 0.218-1.557 0.328-2.354 0.325-1.155 0.027-2.299-0.227-3.334-0.739-0.927-0.469-1.692-1.199-2.202-2.092-0.534-0.967-0.802-2.057-0.775-3.159-0.022-1.209 0.25-2.406 0.788-3.493 0.492-0.993 1.26-1.826 2.215-2.406 0.982-0.585 2.11-0.885 3.258-0.866 1.498-0.090 2.963 0.467 4.009 1.529 1.012 1.226 1.517 2.782 1.412 4.36 0.020 0.299-0.089 0.593-0.293 0.813h0.001zM81.038 10.742c0.782 0.918 1.17 2.101 1.084 3.296 0 0.316-0.010 0.559-0.029 0.727l-0.508 6.063c-0.012 0.421-0.195 0.818-0.51 1.101-0.323 0.275-0.743 0.418-1.17 0.402-0.42 0.026-0.834-0.12-1.147-0.401-0.28-0.297-0.412-0.702-0.355-1.103l0.51-5.937c0.135-1.855-0.611-2.782-2.239-2.782-0.818-0.045-1.615 0.256-2.19 0.826-0.564 0.642-0.887 1.456-0.916 2.306l-0.484 5.587c-0.012 0.421-0.195 0.818-0.51 1.101-0.323 0.275-0.743 0.418-1.17 0.402-0.416 0.027-0.83-0.119-1.134-0.401-0.273-0.301-0.408-0.702-0.369-1.103l0.815-9.723c0.001-0.402 0.189-0.785 0.508-1.039 0.34-0.264 0.765-0.401 1.197-0.388 0.395-0.023 0.779 0.113 1.069 0.376 0.26 0.268 0.373 0.64 0.306 1.002l-0.027 0.476c0.433-0.607 1.020-1.091 1.707-1.403 0.748-0.34 1.566-0.513 2.393-0.5 1.168-0.083 2.318 0.322 3.168 1.116v-0.002zM30.957 9.282c-1.298-1.968-3.887-2.671-6.027-1.638-2.285 1.144-3.196 3.893-2.038 6.142 0.662 1.282 1.898 2.184 3.336 2.434-0.175 5.422-4.782 9.681-10.293 9.508-5.351-0.167-9.615-4.46-9.664-9.732-0.009-4.061 2.555-7.695 6.424-9.104 0.743-0.264 1.174-1.031 1.002-1.792l-0.011-0.047c-0.19-0.833 0.342-1.658 1.185-1.845 0.069-0.014 0.139-0.025 0.21-0.031 0.388-0.035 0.779-0.054 1.171-0.054 0.485 0 0.972 0.028 1.453 0.079 0.873 0.095 1.659-0.527 1.753-1.384 0.004-0.028 0.007-0.059 0.009-0.088 0.023-0.851-0.634-1.573-1.496-1.644-0.571-0.061-1.145-0.089-1.718-0.089-8.975 0-16.252 7.164-16.252 16.001 0 8.838 7.277 15.999 16.252 15.999 8.976 0 16.252-7.162 16.252-15.999 0-1.564-0.32-4.936-1.547-6.718z"></path>
<path d="M22.441 1.215c0.932 0 1.688 0.742 1.688 1.658s-0.756 1.658-1.688 1.658c-0.932 0-1.688-0.742-1.688-1.658s0.756-1.658 1.688-1.658z"></path>
</symbol>

<symbol id="icon-sun" viewBox="0 0 32 32">
<path fill="#fff" style="fill: var(--color1, #fff)" d="M15.981 0.003c-0.033 0.006-0.065 0.015-0.095 0.024-0.353 0.080-0.602 0.398-0.593 0.761v4.566c-0.003 0.274 0.139 0.529 0.377 0.669 0.237 0.137 0.528 0.137 0.765 0 0.237-0.14 0.379-0.395 0.377-0.669v-4.566c0.009-0.22-0.080-0.431-0.237-0.58-0.16-0.152-0.377-0.226-0.593-0.205zM5.166 4.474c-0.285 0.051-0.513 0.259-0.593 0.535-0.080 0.279 0.003 0.577 0.213 0.773l3.225 3.234c0.184 0.226 0.477 0.33 0.762 0.265 0.282-0.065 0.504-0.288 0.569-0.571 0.065-0.285-0.039-0.58-0.264-0.764l-3.225-3.234c-0.157-0.169-0.385-0.256-0.617-0.238-0.024 0-0.047 0-0.071 0zM26.701 4.474c-0.172 0.024-0.332 0.11-0.451 0.238l-3.225 3.234c-0.225 0.184-0.329 0.479-0.264 0.764 0.065 0.282 0.288 0.505 0.569 0.571 0.285 0.065 0.578-0.039 0.762-0.265l3.225-3.234c0.237-0.226 0.305-0.58 0.166-0.877-0.142-0.3-0.457-0.473-0.783-0.431zM15.981 8.398c-0.024 0.006-0.047 0.015-0.071 0.024-0.047 0.003-0.095 0.012-0.142 0.024-0.009 0.009-0.015 0.015-0.024 0.024-4.026 0.172-7.281 3.46-7.281 7.539 0 4.189 3.412 7.61 7.589 7.61s7.589-3.422 7.589-7.61c0-4.064-3.228-7.34-7.234-7.539-0.027 0-0.045-0.024-0.071-0.024-0.077-0.030-0.157-0.045-0.237-0.048-0.015 0-0.033 0-0.047 0-0.024 0-0.047 0-0.071 0zM16.005 9.92c0.015 0 0.033 0 0.047 0 0.024 0 0.047 0 0.071 0 3.32 0.039 6 2.75 6 6.088 0 3.365-2.716 6.088-6.071 6.088-3.353 0-6.072-2.723-6.072-6.088 0-3.347 2.692-6.061 6.024-6.088zM0.66 15.247c-0.418 0.059-0.712 0.449-0.652 0.868s0.448 0.713 0.866 0.654h4.554c0.273 0.003 0.528-0.14 0.667-0.378 0.136-0.238 0.136-0.529 0-0.767-0.139-0.238-0.394-0.381-0.667-0.378h-4.554c-0.024 0-0.047 0-0.071 0s-0.047 0-0.071 0c-0.024 0-0.047 0-0.071 0zM26.464 15.247c-0.418 0.059-0.711 0.449-0.652 0.868s0.448 0.713 0.866 0.654h4.554c0.273 0.003 0.528-0.14 0.667-0.378 0.136-0.238 0.136-0.529 0-0.767-0.139-0.238-0.394-0.381-0.667-0.378h-4.554c-0.024 0-0.047 0-0.071 0s-0.047 0-0.071 0-0.047 0-0.071 0zM8.463 22.762c-0.172 0.024-0.332 0.11-0.451 0.238l-3.225 3.234c-0.225 0.184-0.329 0.479-0.264 0.764 0.065 0.282 0.288 0.505 0.569 0.571 0.285 0.065 0.578-0.039 0.762-0.265l3.225-3.234c0.225-0.217 0.293-0.553 0.172-0.841-0.119-0.288-0.406-0.473-0.717-0.467-0.024 0-0.047 0-0.071 0zM23.404 22.762c-0.285 0.051-0.513 0.259-0.593 0.535-0.080 0.279 0.003 0.577 0.213 0.773l3.225 3.234c0.184 0.226 0.477 0.33 0.762 0.265 0.282-0.065 0.504-0.288 0.569-0.571 0.065-0.285-0.039-0.58-0.264-0.764l-3.225-3.234c-0.142-0.152-0.338-0.235-0.545-0.238-0.024 0-0.047 0-0.071 0s-0.047 0-0.071 0zM15.981 25.878c-0.033 0.006-0.065 0.015-0.095 0.024-0.353 0.080-0.602 0.398-0.593 0.761v4.566c-0.003 0.274 0.139 0.529 0.377 0.669 0.237 0.137 0.528 0.137 0.765 0 0.237-0.14 0.379-0.395 0.377-0.669v-4.566c0.009-0.22-0.080-0.431-0.237-0.58-0.16-0.152-0.377-0.226-0.593-0.205z"></path>
</symbol>

<symbol id="icon-moon" viewBox="0 0 32 32">
<path d="M32 25.752c-21.193 3.748-28.419-13.436-15.651-25.752-18.752 0.859-18.843 19.973-12.768 26.583 11.631 12.655 28.419-0.831 28.419-0.831z"></path>
<path d="M20.267 7.467c-0.272 0-0.408-0.14-0.408-0.421v-2.422h-2.384c-0.272 0-0.408-0.132-0.408-0.395s0.136-0.395 0.408-0.395h2.384v-2.346c0-0.28 0.136-0.421 0.408-0.421s0.408 0.14 0.408 0.421v2.346h2.384c0.272 0 0.408 0.132 0.408 0.395s-0.136 0.395-0.408 0.395h-2.384v2.422c0 0.28-0.136 0.421-0.408 0.421z"></path>
<path d="M28.266 11.734c-0.227 0-0.34-0.117-0.34-0.351v-2.019h-1.987c-0.227 0-0.34-0.11-0.34-0.329s0.113-0.329 0.34-0.329h1.987v-1.955c0-0.234 0.113-0.351 0.34-0.351s0.34 0.117 0.34 0.351v1.955h1.987c0.227 0 0.34 0.11 0.34 0.329s-0.113 0.329-0.34 0.329h-1.987v2.019c0 0.234-0.113 0.351-0.34 0.351z"></path>
<path d="M17.6 17.066c-0.227 0-0.34-0.117-0.34-0.351v-2.019h-1.987c-0.227 0-0.34-0.11-0.34-0.329s0.113-0.329 0.34-0.329h1.987v-1.955c0-0.234 0.113-0.351 0.34-0.351s0.34 0.117 0.34 0.351v1.955h1.987c0.227 0 0.34 0.11 0.34 0.329s-0.113 0.329-0.34 0.329h-1.987v2.019c0 0.234-0.113 0.351-0.34 0.351z"></path>
<path d="M28.266 22.4c-0.227 0-0.34-0.117-0.34-0.351v-2.019h-1.987c-0.227 0-0.34-0.11-0.34-0.329s0.113-0.329 0.34-0.329h1.987v-1.955c0-0.234 0.113-0.351 0.34-0.351s0.34 0.117 0.34 0.351v1.955h1.987c0.227 0 0.34 0.11 0.34 0.329s-0.113 0.329-0.34 0.329h-1.987v2.019c0 0.234-0.113 0.351-0.34 0.351z"></path>
</symbol>

<symbol id="icon-2" viewBox="0 0 88 32">
<path d="M17.185 16.775c1.792 0 3.575 0.013 5.36-0.008 0.428-0.006 0.555-0.487 0.299-1.116-0.632-1.551-1.518-2.384-2.642-2.435-1.391-0.065-2.775 1.562-3.017 3.559zM17.099 20.233c0.682 3.836 3.599 5.032 5.274 2.256 0.195-0.321 0.359-0.723 0.63-0.869 0.447-0.241 0.853-0.083 1.168 0.519 0.318 0.605 0.342 1.402 0.017 2.15-0.634 1.446-1.518 2.346-2.53 2.81-2.151 0.985-4.043 0.131-5.505-2.691-1.463-2.826-1.717-6.122-0.79-9.499 0.922-3.358 2.591-5.066 4.795-5.145 2.436-0.088 4.62 2.87 5.151 6.846 0.239 1.798-0.627 3.602-1.773 3.618-1.944 0.027-3.889 0.006-5.833 0.006h-0.604z"></path>
<path d="M63.523 16.775c0.842 0 1.684 0.015 2.526-0.005 0.447-0.012 0.612-0.462 0.375-1.054-0.683-1.701-1.645-2.588-2.875-2.492-1.252 0.099-2.156 1.175-2.749 3.007-0.166 0.51-0.008 0.555 0.25 0.55 0.824-0.015 1.648-0.006 2.473-0.006zM64.084 20.233c-1.016 0-2.031 0.024-3.045-0.013-0.38-0.012-0.444 0.127-0.284 0.712 0.914 3.315 3.596 4.162 5.171 1.611 0.287-0.465 0.566-0.968 1.004-0.918 0.373 0.042 0.694 0.274 0.875 0.901 0.202 0.705 0.134 1.357-0.132 1.942-0.535 1.178-1.257 1.972-2.075 2.456-2.085 1.238-3.995 0.6-5.581-1.943-1.498-2.401-1.975-5.452-1.399-8.783 0.6-3.468 2.039-5.602 4.16-6.305 2.636-0.873 5.295 1.951 6.012 6.296 0.359 2.164-0.475 4.025-1.816 4.041-0.964 0.012-1.928 0.002-2.89 0.002z"></path>
<path d="M9.021 14.358c-0.912 0-1.823-0.007-2.734 0.002-0.727 0.007-1.186 0.68-1.172 1.691 0.013 1.027 0.459 1.649 1.189 1.651 1.531 0.003 3.062-0.010 4.592 0.006 0.623 0.007 0.74 0.317 0.532 1.282-0.761 3.523-2.958 5.714-5.241 5.226-2.734-0.583-4.632-4.97-4.158-9.607 0.462-4.509 3.14-7.511 5.826-6.548 0.936 0.335 1.714 1.112 2.416 2.175 0.662 1.003 1.542 0.568 1.716-0.815 0.104-0.83-0.192-1.369-0.526-1.84-2.089-2.955-4.464-3.809-7.018-2.195-2.573 1.625-4.080 4.865-4.398 9.478-0.42 6.084 2.179 11.711 5.751 12.572 3.667 0.883 7.098-3.172 7.774-9.183 0.246-2.185-0.581-3.872-1.917-3.892-0.877-0.013-1.755-0.002-2.632-0.002z"></path>
<path d="M74.505 9.798c-1.196-0.051-2.282 0.524-3.235 1.695-0.928 1.137-1.312 2.734-1.075 4.622 0.227 1.81 0.906 3.002 2.006 3.415 1.138 0.427 2.282 0.813 3.422 1.218 0.401 0.142 0.772 0.339 0.854 1.151 0.083 0.837-0.212 1.276-0.598 1.62-0.136 0.12-0.276 0.232-0.421 0.317-1.389 0.81-2.51-0.009-3.513-1.603-0.51-0.811-1.091-0.859-1.512-0.181-0.404 0.652-0.396 1.718 0.021 2.574 1.676 3.451 5.325 3.939 7.3 0.975 0.825-1.238 1.173-2.758 0.881-4.575-0.289-1.801-1.025-2.862-2.11-3.253-1.123-0.407-2.248-0.811-3.37-1.222-0.418-0.152-0.752-0.512-0.794-1.275-0.042-0.755 0.24-1.187 0.632-1.504 1.287-1.044 2.855-0.579 3.83 1.167 0.516 0.923 1.109 1.055 1.576 0.349 0.473-0.713 0.45-1.826-0.080-2.74-1.043-1.796-2.314-2.723-3.813-2.751z"></path>
<path d="M82.078 16.651c0.028 1.283-0.065 2.75 0.152 4.2 0.528 3.535 2.509 6.429 4.564 6.626 0.642 0.064 1.085-0.466 1.164-1.39 0.086-1.017-0.235-1.734-0.88-1.962-0.118-0.041-0.236-0.078-0.354-0.117-1.505-0.498-2.624-2.771-2.631-5.346-0.003-1.612 0.013-3.224-0.008-4.836-0.007-0.54 0.061-0.74 0.413-0.72 0.808 0.049 1.617 0.021 2.425 0.014 0.649-0.006 1.070-0.662 1.075-1.658s-0.41-1.645-1.069-1.653c-0.791-0.009-1.583-0.037-2.372 0.013-0.392 0.024-0.552-0.132-0.524-0.839 0.037-0.917 0.014-1.842 0.008-2.763-0.008-1.112-0.389-1.779-0.996-1.768-0.583 0.011-0.955 0.669-0.968 1.729-0.006 0.519 0.009 1.036-0.003 1.554-0.015 0.658 0.16 1.474-0.076 1.925-0.222 0.424-0.712 0.102-1.083 0.144-0.544 0.062-0.929 0.718-0.937 1.618-0.008 0.926 0.395 1.653 0.948 1.696 0.206 0.015 0.416 0.041 0.619-0.005 0.409-0.095 0.584 0.095 0.542 0.856-0.047 0.828-0.011 1.667-0.011 2.68z"></path>
<path d="M41.826 11.574c-0.106-0.12-0.063-0.276-0.080-0.404-0.129-0.949-0.554-1.459-1.132-1.354-0.499 0.087-0.827 0.725-0.828 1.673-0.004 4.774-0.001 9.549-0.004 14.325 0 0.749 0.205 1.263 0.609 1.541 0.684 0.468 1.359-0.323 1.368-1.64 0.017-2.214 0.011-4.43 0.002-6.644-0.003-0.669 0.045-1.322 0.157-1.956 0.377-2.129 1.26-3.332 2.522-3.867 0.679-0.287 0.966-1.089 0.813-2.117-0.137-0.921-0.653-1.37-1.297-1.153-0.786 0.265-1.479 0.87-2.131 1.597z"></path>
<path d="M9.021 14.358c0.877 0 1.755-0.011 2.632 0.002 1.336 0.020 2.163 1.707 1.917 3.892-0.675 6.011-4.107 10.066-7.774 9.183-3.572-0.862-6.171-6.488-5.751-12.572 0.318-4.613 1.825-7.853 4.398-9.478 2.555-1.614 4.929-0.76 7.018 2.195 0.334 0.471 0.63 1.009 0.526 1.84-0.174 1.383-1.054 1.818-1.716 0.815-0.702-1.063-1.48-1.84-2.416-2.175-2.687-0.962-5.365 2.039-5.826 6.548-0.475 4.637 1.424 9.024 4.158 9.607 2.283 0.488 4.48-1.703 5.241-5.226 0.208-0.964 0.091-1.274-0.532-1.282-1.53-0.016-3.061-0.003-4.592-0.006-0.73-0.002-1.176-0.624-1.189-1.651-0.014-1.011 0.445-1.684 1.172-1.691 0.911-0.009 1.823-0.002 2.734-0.002z"></path>
<path d="M55.082 18.601c-0-2.969-1.439-5.386-3.208-5.389-1.754-0.004-3.231 2.44-3.242 5.363-0.012 3.074 1.44 5.542 3.244 5.512 1.803-0.028 3.207-2.43 3.205-5.485zM48.58 25.681c-0.020 0.111-0.042 0.213-0.058 0.318-0.161 1.083-0.532 1.565-1.127 1.459-0.524-0.096-0.86-0.786-0.862-1.842-0.006-3.423-0.002-6.848-0.002-10.272 0-2.994-0.004-5.987 0.001-8.98 0.002-1.042 0.29-1.71 0.78-1.879 0.67-0.231 1.204 0.508 1.214 1.732 0.013 1.753 0.003 3.508 0.003 5.46 1.299-1.641 2.708-2.173 4.214-1.777 1.518 0.4 2.717 1.73 3.565 3.875 1.316 3.329 1.072 7.955-0.548 10.851-1.882 3.361-4.281 3.719-7.18 1.054z"></path>
<path d="M31.892 24.031c1.825 0.006 3.257-2.34 3.265-5.353 0.008-3.014-1.419-5.44-3.216-5.467-1.804-0.027-3.273 2.435-3.27 5.479 0.003 2.965 1.433 5.335 3.221 5.341zM35.219 11.626c0.104-1.185 0.394-1.748 0.935-1.816 0.586-0.072 1.059 0.572 1.063 1.561 0.017 4.866 0.020 9.73 0.017 14.596-0.001 0.763-0.351 1.377-0.78 1.497-0.486 0.137-0.907-0.221-1.095-0.955-0.065-0.255-0.095-0.533-0.141-0.802-3.085 2.734-5.707 2.167-7.488-1.615-1.588-3.371-1.487-8.098 0.257-11.413 1.408-2.677 4.348-4.48 7.232-1.055z"></path>
<path d="M74.505 9.798c1.499 0.028 2.771 0.954 3.813 2.751 0.53 0.914 0.554 2.027 0.080 2.74-0.468 0.706-1.061 0.574-1.576-0.349-0.975-1.746-2.543-2.211-3.83-1.167-0.392 0.317-0.674 0.749-0.632 1.504 0.042 0.763 0.376 1.123 0.794 1.275 1.123 0.411 2.247 0.815 3.37 1.222 1.085 0.391 1.821 1.452 2.11 3.253 0.292 1.817-0.056 3.336-0.881 4.575-1.975 2.964-5.624 2.476-7.3-0.975-0.416-0.856-0.425-1.922-0.021-2.574 0.42-0.678 1.002-0.63 1.512 0.181 1.003 1.593 2.124 2.413 3.513 1.603 0.145-0.085 0.286-0.197 0.421-0.317 0.386-0.344 0.681-0.783 0.598-1.62-0.081-0.813-0.452-1.009-0.854-1.151-1.14-0.405-2.284-0.791-3.422-1.218-1.1-0.413-1.779-1.605-2.006-3.415-0.237-1.888 0.147-3.485 1.075-4.622 0.953-1.171 2.040-1.746 3.235-1.695z"></path>
<path d="M82.078 16.651c0-1.013-0.036-1.853 0.011-2.68 0.042-0.761-0.133-0.951-0.542-0.856-0.203 0.046-0.412 0.020-0.619 0.005-0.553-0.042-0.956-0.77-0.948-1.696 0.008-0.901 0.393-1.557 0.937-1.618 0.37-0.041 0.86 0.28 1.083-0.144 0.237-0.45 0.062-1.267 0.076-1.925 0.012-0.518-0.003-1.035 0.003-1.554 0.013-1.060 0.385-1.718 0.968-1.729 0.607-0.011 0.988 0.656 0.996 1.768 0.006 0.921 0.029 1.845-0.008 2.763-0.028 0.707 0.132 0.863 0.524 0.839 0.79-0.050 1.582-0.022 2.372-0.013 0.659 0.007 1.074 0.657 1.069 1.653s-0.426 1.652-1.075 1.658c-0.808 0.007-1.618 0.035-2.425-0.014-0.352-0.020-0.42 0.18-0.413 0.72 0.020 1.612 0.004 3.224 0.008 4.836 0.006 2.575 1.125 4.848 2.631 5.346 0.118 0.040 0.236 0.077 0.354 0.117 0.644 0.228 0.966 0.945 0.88 1.962-0.079 0.924-0.521 1.453-1.164 1.39-2.055-0.197-4.036-3.091-4.564-6.626-0.218-1.45-0.124-2.917-0.152-4.2z"></path>
<path d="M41.826 11.574c0.651-0.727 1.345-1.332 2.131-1.597 0.643-0.217 1.159 0.233 1.297 1.153 0.153 1.028-0.134 1.83-0.813 2.117-1.262 0.535-2.145 1.738-2.522 3.867-0.112 0.634-0.16 1.287-0.157 1.956 0.009 2.214 0.015 4.43-0.002 6.644-0.009 1.317-0.684 2.107-1.368 1.64-0.405-0.278-0.609-0.792-0.609-1.541 0.003-4.776-0.001-9.551 0.004-14.325 0.001-0.948 0.329-1.586 0.828-1.673 0.577-0.104 1.003 0.405 1.132 1.354 0.017 0.128-0.026 0.284 0.080 0.404z"></path>
</symbol>
<symbol id="icon-1" viewBox="0 0 88 32">
<path d="M36.368 15.013c-1.097-0.614-2.249-0.978-3.373-1.474-0.46-0.203-0.915-0.443-1.364-0.704-0.53-0.309-0.916-0.863-0.911-1.808 0.005-1.008 0.291-1.838 0.878-2.296 0.653-0.51 1.361-0.452 2.068-0.335 1.192 0.198 1.709 1.337 1.937 2.618 0.035 0.195 0.074 0.389 0.108 0.57h2.747c0.148-2.133-0.647-4.134-1.749-5.287-0.668-0.7-1.418-1.049-2.215-1.275-1.348-0.383-2.645-0.268-3.926 0.497-1.573 0.94-2.877 3.165-2.707 6.363 0.069 1.298 0.414 2.342 0.974 3.237 0.685 1.094 1.582 1.603 2.484 2.036 0.928 0.447 1.889 0.734 2.814 1.193 0.505 0.25 1.018 0.606 1.439 1.099 0.769 0.902 0.743 2.496 0.008 3.472-0.35 0.465-0.755 0.743-1.213 0.847-0.637 0.144-1.257 0.239-1.911 0.027-1.096-0.356-2-1.411-2.174-3.107-0.025-0.247-0.069-0.722-0.069-0.722-0.928 0-1.962-0.007-2.843-0.007 0 0 0.020 0.555 0.027 0.695 0.154 2.809 1.144 4.687 2.719 5.842 0.846 0.619 1.759 0.867 2.7 0.91 1.317 0.060 2.593-0.11 3.81-1.017 1.952-1.454 2.788-4.803 2.139-7.802-0.394-1.82-1.293-2.958-2.396-3.575z"></path>
<path d="M23.328 17.829c-0.165 2.23-0.739 4.156-2.041 5.367-0.694 0.646-1.456 0.68-2.219 0.626-1.841-0.134-2.98-2.447-3.323-4.861-0.055-0.389-0.131-0.777-0.152-1.172-0.026-0.514-0.050-1.023-0.050-1.541-0.013-1.493 0.132-2.916 0.536-4.263 0.73-2.438 2.006-3.521 3.691-3.394 1.704 0.128 2.839 2.117 3.268 4.155 0.353 1.679 0.415 3.382 0.289 5.084zM24.907 9.409c-1.297-3-3.145-4.366-5.796-4.37-0.74-0.080-1.779 0.326-2.764 1.076-1.113 0.849-1.932 2.2-2.559 3.852-0.733 1.935-0.993 4.084-1.013 6.283-0.014 1.518 0.135 3.036 0.485 4.49 0.361 1.498 0.863 2.845 1.604 3.941 0.882 1.304 1.937 2.086 3.128 2.456 1.808 0.562 3.525 0.211 5.103-1.3 1.453-1.391 2.317-3.501 2.752-6.048 0.31-1.813 0.36-3.653 0.19-5.523-0.159-1.755-0.5-3.397-1.132-4.858z"></path>
<path d="M43.539 23.111v-5.619h5.753v-3.402h-5.753v-4.928c2.345-0.026 4.769 0.009 7.159-0.019v-3.763h-9.994v21.527h10.012l-0.015-3.797h-7.162z"></path>
<path d="M7.078 5.37c-2.22-0.095-4.442-0.041-6.664-0.046h-0.414v3.656h0.581c1.876 0 3.753-0.015 5.629 0.013 0.335 0.005 0.699 0.086 0.997 0.305 1 0.737 1.311 2.522 0.899 3.953-0.35 1.217-1.020 1.773-1.893 1.761-1.891-0.025-3.783-0.010-5.674-0.006h-0.539v11.989h2.724c0 0-0.001-0.603-0-0.877 0.005-2.212-0.021-4.43 0-6.643 0 0-0.003-1.154 0-0.97 0 0 0.213 0.001 0.269 0 0.74-0.007 1.925-0.010 2.743-0.012 0.427 1.743 1.018 4.176 1.43 5.846 0.221 0.892 0.476 1.829 0.686 2.655h2.709c-0.701-2.862-1.442-5.883-2.162-8.819 0.242-0.218 0.34-0.281 0.49-0.412 0.855-0.747 1.442-1.89 1.823-3.303 0.546-2.025 0.454-3.997-0.255-5.884-0.757-2.014-1.903-3.145-3.379-3.208z"></path>
<path d="M59.696 15.55c-0.145 0-0.471 0.010-0.471 0.010v1.925h4.558c-0.051 2.067-0.41 3.817-1.208 5.318-0.904 1.701-2.041 2.775-3.468 2.891-0.573 0.046-1.164-0.075-1.729-0.258-1.412-0.456-2.385-1.873-3.112-3.747-0.461-1.191-0.67-2.5-0.652-3.897 0.024-1.92-0.144-3.852 0.23-5.747 0.631-3.189 2.188-5.393 4.231-5.769 1.817-0.333 3.397 0.65 4.563 2.963 0.313 0.621 0.562 1.32 0.854 2.018h1.142c-0.048-0.288-0.063-0.45-0.102-0.596-0.285-1.068-0.644-2.067-1.144-2.925-1.183-2.030-2.607-3.268-4.401-3.274-0.315-0.001-0.634-0.045-0.945 0.012-0.429 0.078-0.873 0.143-1.274 0.373-1.389 0.798-2.528 2.129-3.3 4.145-0.521 1.361-0.944 2.783-0.963 4.419-0.014 1.247-0.058 2.494-0.047 3.74 0.012 1.434 0.069 2.863 0.464 4.202 1.006 3.41 2.587 5.664 5.036 6.12 1.292 0.24 2.555-0.018 3.703-1.029 1.437-1.265 2.451-3.118 2.98-5.6 0.3-1.41 0.327-2.859 0.316-4.321 0-0.364 0.003-0.687 0.009-0.975-1.556-0.002-3.832-0.001-5.268 0.003z"></path>
<path d="M87.984 25.192c-0.818 0-6.511-0.015-7.372-0.022v-20.111l-1.212 0.019c-0.008 0.279-0 15.375 0 21.918 2.435 0.001 8.6 0.001 8.6 0.001l-0.016-1.804z"></path>
<path d="M69.307 17.27c0.789-3.321 1.612-6.782 2.402-10.11 0.044-0.001 0.162-0.001 0.207-0.002 0 0 1.308 5.514 1.575 6.657 0.261 1.116 0.555 2.345 0.813 3.455h-4.997zM74.215 11.616c-0.436-1.839-1.116-4.719-1.597-6.815-0.585 0-1.244 0.001-1.51 0.001-1.728 7.055-3.65 14.923-5.396 22.195h1.269c0.592-2.517 1.691-7.119 1.843-7.72h5.964c0.482 2.056 1.264 5.269 1.838 7.72h1.224c-0.36-1.565-0.965-4.158-1.206-5.171-0.81-3.404-1.621-6.806-2.428-10.21z"></path>
</symbol>
<symbol id="icon-4" viewBox="0 0 88 32">
<path d="M21.96 21.791v-15.301h8.007v1.918h-6.349v4.704h5.702v1.919h-5.702v4.796h6.794v1.918h-8.452v0.046zM38.824 21.791l-2.75-4.065-2.75 4.065h-1.94l3.761-5.435-3.963-5.618h2.184l2.709 4.203 2.75-4.203h2.143l-3.761 5.618 3.559 5.435h-1.941zM43.434 20.146v7.536h-1.658v-11.282c0-2.878 1.941-5.937 4.974-5.937 3.073 0 5.378 2.193 5.378 5.801 0 3.517-2.345 5.938-5.014 5.938-1.295 0-3.033-0.64-3.68-2.056zM50.39 16.264c0-2.466-1.416-3.927-3.923-3.791-1.213 0.046-3.073 1.050-2.912 4.568 0.041 1.142 1.092 3.288 3.397 3.288 1.981 0 3.437-1.279 3.437-4.065zM53.544 21.791v-11.053h1.658v1.188c0.809-1.051 2.062-1.416 3.397-1.416v2.010c-0.202-0.046-2.184-0.32-3.397 2.603v6.714h-1.658v-0.046zM59.044 16.264c0-3.198 2.022-5.801 4.812-5.801 3.479 0 4.772 2.604 4.772 5.937v0.914h-7.764c0.121 2.101 1.779 3.197 3.316 3.151 1.132-0.045 1.901-0.411 2.71-1.324l1.092 1.279c-1.011 1.096-2.305 1.826-3.882 1.826-2.952-0.045-5.056-2.512-5.056-5.983zM63.735 12.337c-1.577 0-2.79 1.552-2.871 3.243h6.026c0-1.645-1.051-3.243-3.155-3.243zM69.478 20.238l1.212-1.233c-0.040 0 0.607 0.731 0.688 0.776 0.283 0.274 0.565 0.457 0.93 0.548 1.051 0.32 2.952 0.228 3.114-1.416 0.081-0.913-0.526-1.416-1.213-1.736-0.89-0.365-1.861-0.502-2.75-0.959-1.012-0.502-1.658-1.37-1.658-2.649 0-3.335 4.205-3.883 6.106-2.33 0.081 0.091 1.011 1.050 0.971 1.050l-1.213 1.097c-0.606-0.822-1.173-1.234-2.467-1.234-0.647 0-1.537 0.32-1.699 1.096-0.243 1.096 0.849 1.507 1.577 1.736 0.971 0.274 2.022 0.457 2.872 1.050 1.173 0.822 1.456 2.603 1.011 3.974-0.486 1.507-1.942 2.101-3.236 2.146-1.536 0.092-2.871-0.456-3.963-1.689-0.081 0-0.283-0.229-0.283-0.229zM78.011 20.238l1.214-1.233c-0.040 0 0.606 0.731 0.687 0.776 0.283 0.274 0.567 0.457 0.93 0.548 1.051 0.32 2.952 0.228 3.114-1.416 0.080-0.913-0.526-1.416-1.214-1.736-0.89-0.365-1.86-0.502-2.749-0.959-1.011-0.502-1.658-1.37-1.658-2.649 0-3.335 4.206-3.883 6.106-2.33 0.081 0.091 1.011 1.050 0.971 1.050l-1.213 1.097c-0.607-0.822-1.173-1.234-2.467-1.234-0.647 0-1.536 0.32-1.699 1.096-0.242 1.096 0.849 1.507 1.577 1.736 0.971 0.274 2.023 0.457 2.872 1.050 1.172 0.822 1.456 2.603 1.011 3.974-0.485 1.507-1.941 2.101-3.236 2.146-1.536 0.092-2.871-0.456-3.963-1.689-0.081 0-0.283-0.229-0.283-0.229h-0.001zM85.897 10.737v-1.188h-0.364v-0.228h0.97v0.228h-0.364v1.188h-0.243zM87.717 10.737v-1.096l-0.364 1.096h-0.081l-0.364-1.096v1.096h-0.202v-1.416h0.324l0.323 0.96 0.324-0.96h0.323v1.416h-0.283zM10.717 21.791l-1.213-3.654h-6.551l-1.214 3.654h-1.739l5.258-15.301h1.9l5.217 15.301h-1.659zM6.147 8.682l-2.466 7.582h5.136l-2.669-7.582zM13.467 21.791h1.699v-15.3h-1.699v15.3zM17.713 21.791h1.699v-10.825h-1.699v10.825zM21.029 7.449v-0.183c-1.294-0.045-2.346-1.233-2.386-2.695h-0.243c-0.041 1.462-1.092 2.649-2.386 2.695v0.183c1.294 0.045 2.345 1.233 2.386 2.695h0.243c0.040-1.462 1.092-2.649 2.386-2.695z"></path>
</symbol>
<symbol id="icon-5" viewBox="0 0 88 32">
<path d="M50.425 9.133c1.079 0 1.744 0.616 2.116 1.135l0.106 0.15 0.064-0.2c0.168-0.513 0.504-0.795 0.94-0.795h1.069l-0.009 11.955c0 4.557-2.284 6.178-4.241 6.178-0.95 0-2.002-0.415-2.809-1.107l-0.16-0.138 0.258-1.067 0.182-0.729c0.198-0.791 0.483-0.987 0.971-0.749 0.373 0.219 0.931 0.461 1.544 0.461 1.262 0 1.959-0.961 1.959-2.701v-0.362l-0.177 0.215c-0.46 0.561-1.036 0.837-1.768 0.837-2.142 0-3.638-2.71-3.638-6.589 0-3.882 1.447-6.492 3.595-6.492zM63.048 9.204c1.185 0 2.949 0.814 2.949 3.056v1.699l-1.203-0.003c-0.1 0-0.612-0.048-0.782-0.96l-0.010-0.067c-0.074-0.402-0.543-0.642-0.955-0.642-1.27 0-2.157 1.515-2.157 3.68 0 2.508 1.144 3.634 2.277 3.634 1.168 0 2.070-1.421 2.181-1.605l0.011-0.019 0.125-0.216 0.952 2.553-0.063 0.126c-0.011 0.022-1.195 2.338-3.374 2.338-2.511 0-4.331-2.852-4.331-6.785 0-3.931 1.84-6.789 4.377-6.789zM12.566 9.191c2.446 0 4.222 2.839 4.222 6.75s-1.775 6.75-4.222 6.75c-2.437 0-4.206-2.84-4.206-6.75s1.768-6.75 4.206-6.75zM21.591 9.191c2.443 0 4.223 2.839 4.223 6.75s-1.779 6.75-4.223 6.75c-2.44 0-4.208-2.84-4.208-6.75s1.769-6.75 4.208-6.75zM70.84 9.191c2.443 0 4.221 2.839 4.221 6.75s-1.778 6.75-4.221 6.75c-2.439 0-4.208-2.84-4.208-6.75s1.768-6.75 4.208-6.75zM35.883 9.457c0.815 0 1.209 0.646 1.209 1.978l-0.005 11.048h-0.005v0.005h-0.538l-0.541 0.003c-0.014 0-0.027-0.003-0.042-0.003h-1.162v-2.954h0.001l-0.007-10.077h1.089zM27.726 4.444c0.636 0 1.225 0.208 1.225 1.738v7.646h0.369c0.276 0 0.461-0.111 0.552-0.327l1.616-4.044h2.611l-2.151 5.17c-0.11 0.262-0.225 0.489-0.336 0.679l-0.078 0.12 0.074 0.126c0.115 0.194 0.224 0.439 0.319 0.727l0.876 2.68 1.32 3.533h-1.774c-0.668 0-1.022-0.182-1.38-1.238l-1.276-3.896c-0.083-0.231-0.262-0.28-0.526-0.28h-0.217v5.414h-2.313l-0.003-18.047 1.091-0.001zM43.157 9.161c1.881 0 2.874 1.742 2.874 5.036l0.004 8.29h-1.094c-0.835 0-1.222-0.633-1.222-1.982v-5.677c0-1.582-0.28-2.195-0.997-2.195-0.891 0-1.605 0.875-1.86 2.283-0.097 0.465-0.143 0.974-0.143 1.563v6.008h-2.297l-0.007-13.036h1.036c0.627 0 1.044 0.422 1.167 1.188l0.050 0.311 0.141-0.229c0.42-0.714 1.171-1.561 2.348-1.561zM85.324 9.203l0.108 0.003c1.703 0.068 2.568 1.747 2.568 4.99l-0.002 8.287h-1.033c-0.811 0-1.172-0.585-1.172-1.897v-5.798c0-1.662-0.251-2.281-0.926-2.281-0.934 0-1.536 1.355-1.712 2.679-0.087 0.469-0.124 0.94-0.124 1.567v5.731h-2.21v-7.696c0-1.442-0.291-2.187-0.887-2.279-0.968-0.149-1.544 1.34-1.754 2.726-0.077 0.519-0.116 1.018-0.116 1.518v5.731h-2.194l0.009-12.983h0.965c0.602 0 1 0.397 1.121 1.12l0.084 0.501 0.217-0.382c0.333-0.571 1.048-1.536 2.117-1.536 1.019 0 1.751 0.637 2.176 1.892l0.13 0.382 0.167-0.341c0.591-1.21 1.513-1.932 2.467-1.932l-0.001-0.002zM1.404 4.452h2.403c2.106 0 3.466 1.832 3.466 4.668 0 1.854-0.575 2.926-0.919 3.404l-0.295 0.408 0.338 0.308c0.821 0.746 1.308 2.215 1.308 3.935 0 3.19-1.51 5.251-3.851 5.251h-3.855v-16.101c0.006-1.016 0.507-1.838 1.131-1.873h0.273zM12.566 12.35c-1.152 0-1.952 1.479-1.952 3.592 0 2.112 0.8 3.593 1.952 3.593 1.175 0 1.968-1.446 1.968-3.593 0-2.114-0.809-3.593-1.968-3.593v0.001zM21.591 12.35c-1.152 0-1.954 1.479-1.954 3.592 0 2.112 0.802 3.593 1.953 3.593 1.176 0 1.968-1.446 1.968-3.593 0-2.114-0.812-3.593-1.968-3.593v0.001zM70.84 12.35c-1.152 0-1.955 1.479-1.955 3.592 0 2.112 0.803 3.593 1.954 3.593 1.175 0 1.969-1.446 1.969-3.593 0-2.114-0.813-3.593-1.969-3.593l0 0.001zM4.009 14.498h-1.274c-0.41 0.093-0.595 0.494-0.595 1.267v3.616l1.87 0.004c0.926-0.001 1.499-0.915 1.499-2.456 0-1.503-0.59-2.432-1.5-2.432zM50.754 12.41c-1.468 0-1.582 2.387-1.582 3.118 0 1.66 0.448 3.432 1.703 3.432 0.721 0 1.581-0.573 1.581-3.31 0-2.901-0.972-3.24-1.702-3.24v-0.001zM3.792 7.399h-0.957c-0.478 0.051-0.696 0.447-0.696 1.28v3.039h1.683c0.946 0 1.283-1.182 1.283-2.196 0-1.328-0.491-2.123-1.312-2.123z"></path>
<path d="M58.554 21.098c0 0.793-0.606 1.435-1.354 1.435s-1.354-0.642-1.354-1.435c0-0.793 0.606-1.435 1.354-1.435s1.354 0.642 1.354 1.435z"></path>
<path d="M37.163 6.749c0 0.792-0.606 1.435-1.354 1.435s-1.354-0.642-1.354-1.435c0-0.793 0.606-1.435 1.354-1.435s1.354 0.642 1.354 1.435z"></path>
</symbol>
<symbol id="icon-3" viewBox="0 0 88 32">
<path d="M32.090 14.613c0.088-1.535 1.747-2.724 3.703-2.654l0.053 0.002c1.739-0.083 3.235 0.954 3.341 2.318 0.009 0.111 0.008 0.223-0.003 0.334h-7.095zM35.84 9.555c-4.696 0-6.752 2.469-7.409 4.558-0.18 0.563-0.271 1.142-0.27 1.723-0.025 1.376 0.503 2.723 1.51 3.85 1.525 1.538 3.869 2.438 6.353 2.44 2.535 0.072 4.229-0.265 5.524-0.842 0.259-0.132 0.382-0.377 0.307-0.611v-1.603c0-0.327-0.252-0.481-0.614-0.284-1.517 0.762-3.315 1.101-5.107 0.963-2.112-0.022-3.871-1.275-4.1-2.921h10.434c0.235 0 0.427-0.148 0.43-0.332 0.184-2.238-0.645-6.94-7.059-6.94zM10.552 19.931h-4.585c-0.588-0.013-1.156-0.17-1.626-0.448-0.49-0.27-0.778-0.713-0.767-1.183 0-0.65 0.558-1.949 3.351-1.949h3.628l-0.001 3.58zM13.958 14.594c0-1.641-0.466-2.888-1.474-3.749-1.006-0.861-3.032-1.29-4.91-1.29-1.885-0.006-3.738 0.381-5.37 1.121-0.104 0.048-0.167 0.136-0.165 0.231l0.141 1.81c0.039 0.175 0.252 0.293 0.476 0.262 0.074-0.010 0.143-0.036 0.199-0.074 2.302-1.111 5.064-1.319 6.47-0.761 0.788 0.356 1.26 1.025 1.228 1.738v0.264h-3.837c-1.651 0-6.709 0.481-6.709 4.124v0.039c-0.079 1.124 0.529 2.211 1.639 2.926 1.195 0.66 2.641 0.984 4.1 0.919h7.765c0.251 0 0.454-0.159 0.454-0.356v-7.219l-0.006 0.015zM52.516 19.72c-1.896 0-3.266-1.088-3.842-2.44-0.408-0.936-0.408-1.951 0-2.888 0.576-1.352 1.946-2.44 3.842-2.44 4.241 0 4.382 3.393 4.382 3.884s-0.141 3.884-4.382 3.884zM60.379 15.84c0.033-1.377-0.496-2.726-1.51-3.85-2.722-2.751-7.773-3.251-11.282-1.116-0.532 0.324-1.011 0.699-1.424 1.116-2.042 2.317-2.042 5.383 0 7.7 1.5 1.561 3.86 2.468 6.353 2.44 1.609 0.004 3.184-0.368 4.523-1.069v1.521c0 2.064-2.302 2.44-3.775 2.512-1.014 0.027-2.028-0.017-3.032-0.13-0.405-0.048-0.687 0-0.687 0.341v1.829c0.010 0.173 0.196 0.307 0.417 0.299 3.419 0.231 5.721 0.183 7.452-0.592 1.212-0.562 2.112-1.46 2.523-2.517 0.306-0.815 0.453-1.662 0.436-2.512v-5.973h0.006zM71.68 10.262v1.444c0.034 0.206-0.15 0.395-0.412 0.422-0.068 0.007-0.138 0.002-0.203-0.013-2.983-0.481-4.818 0.558-4.818 2.72v6.978c0 0.196-0.204 0.356-0.454 0.356h-2.64c-0.251 0-0.454-0.159-0.454-0.356v-7.128c-0.032-1.363 0.675-2.674 1.945-3.604 1.291-0.989 3.026-1.539 4.831-1.531 0.618 0.001 1.234 0.046 1.841 0.135 0.313 0.082 0.362 0.226 0.362 0.597v-0.020l0.001-0zM19.924 21.813c0 0.196-0.204 0.356-0.454 0.356h-2.639c-0.251 0-0.454-0.159-0.454-0.356v-17.012c0-0.195 0.2-0.354 0.448-0.357h2.639c0.251 0 0.455 0.16 0.455 0.357v17.012h0.006zM26.123 21.813c0 0.196-0.204 0.356-0.454 0.356h-2.64c-0.251 0-0.454-0.159-0.454-0.356v-17.012c0-0.197 0.204-0.357 0.454-0.357h2.64c0.25 0 0.454 0.16 0.454 0.357v17.012zM83.972 17.29c-0.577 1.352-1.946 2.406-3.842 2.44-1.897 0.034-3.266-1.088-3.836-2.44-0.408-0.936-0.408-1.952 0-2.888 0.577-1.352 1.946-2.407 3.836-2.44s3.265 1.088 3.842 2.44c0.406 0.934 0.406 1.948 0 2.883v0.005zM86.489 11.995c-2.722-2.751-7.773-3.25-11.282-1.116-0.532 0.324-1.010 0.699-1.424 1.116-1.008 1.127-1.536 2.474-1.51 3.85-0.026 1.376 0.503 2.723 1.51 3.85 2.722 2.751 7.773 3.251 11.281 1.116 0.532-0.323 1.011-0.698 1.424-1.116 1.007-1.127 1.536-2.474 1.51-3.85 0.025-1.376-0.504-2.723-1.51-3.85z"></path>
</symbol>
<symbol id="icon-7" viewBox="0 0 88 32">
<path d="M8.049 9.938v-5.051h10.043l2.742 13.513 2.777-13.513h3.063l-4.451 21.785h-2.742l-3.454-16.734h-2.6v16.734h-2.955v-16.734h-2.422z"></path>
<path d="M3.098 14.863v-5.619c3.312-0.379 3.241 5.935 0 5.619zM5.77 26.672h3.383l-2.849-8.713c3.526-2.147 2.564-13.198-1.353-13.072h-4.951v21.785h3.098v-8.082l2.672 8.082zM61.717 4.886h3.49l3.312 21.786h-2.458l-0.57-3.851h-4.13l-0.57 3.851h-2.386l3.312-21.785-0-0.001zM64.887 18.841h-2.92l1.46-9.661 1.46 9.661z"></path>
<path d="M73.078 19.094l2.35 0.001v2.462c-0.462 0.569-0.855 0.948-1.211 1.136-0.356 0.253-0.748 0.38-1.14 0.38-0.819 0-1.496-0.568-1.959-1.58-0.463-1.073-0.677-3.157-0.677-5.556 0-2.338 0.214-3.98 0.677-5.052 0.463-1.011 1.282-2.021 2.315-1.768 0.499 0.127 0.926 0.443 1.247 0.883 0.356 0.443 0.569 1.074 0.712 1.958l2.992-1.199c-0.214-1.453-0.534-2.652-0.926-3.599-0.427-0.947-0.926-1.643-1.567-2.084s-1.568-0.631-2.849-0.631c-1.317 0-2.136 0.315-2.92 1.073-0.997 0.948-1.745 2.274-2.244 4.106-0.534 1.768-0.712 3.978-0.712 6.44 0 2.337 0.107 4.421 0.57 6.251 0.464 1.769 0.997 2.968 1.852 3.916 0.855 0.883 1.96 1.325 3.312 1.325 1.104 0 2.315-0.505 3.063-1.136 1.14-0.947 1.71-2.463 2.564-4.421v-7.577h-5.449v4.672zM82.907 9.812h-1.603v11.998h1.603c2.991 0 3.062-11.998 0-11.998zM82.444 4.886h-3.917v21.849h3.917c7.336 0 7.479-21.849 0-21.849z"></path>
<path d="M23.612 26.672h-0.001v-21.786h36.86v21.786h-36.859zM24.324 25.534h35.47v-19.447h-35.47v19.449l-0-0.002z"></path>
<path d="M32.444 21.368h-6.197v-11.241h6.019v2.21h-4.345v2.273h4.024v1.579h-4.024v3.284h4.523v1.895zM49.252 21.368h-1.888l-0.035-3.031c0-1.579-1.104-1.516-1.816-1.516h-1.175v4.548h-1.959v-11.242h4.416c2.885 0 3.561 4.168 1.424 5.684 0.535 0.314 0.997 1.263 0.997 2.462l0.036 3.095v0.001zM44.267 15.115h1.852c0.499 0 0.891-0.127 1.104-0.316 0.213-0.252 0.356-0.631 0.356-1.137 0-0.947-0.463-1.452-1.353-1.452h-1.959v2.905zM54.345 9.938c0.57 0 1.104 0.127 1.567 0.442 0.498 0.254 0.926 0.631 1.282 1.137 0.356 0.504 0.606 1.136 0.819 1.831 0.178 0.757 0.285 1.515 0.285 2.4 0 0.821-0.071 1.641-0.285 2.336-0.178 0.695-0.463 1.326-0.819 1.831s-0.784 0.947-1.246 1.2c-0.499 0.252-1.032 0.441-1.603 0.441s-1.14-0.189-1.603-0.441c-0.498-0.253-0.926-0.695-1.246-1.2-0.356-0.505-0.642-1.074-0.819-1.831-0.214-0.695-0.321-1.453-0.321-2.336 0-0.885 0.107-1.706 0.321-2.4 0.177-0.695 0.463-1.326 0.819-1.831 0.356-0.506 0.783-0.884 1.246-1.137 0.499-0.315 1.033-0.442 1.603-0.442zM54.345 19.536c0.32 0 0.641-0.063 0.961-0.252 0.285-0.19 0.535-0.443 0.748-0.758s0.356-0.695 0.499-1.199c0.107-0.442 0.178-1.011 0.178-1.579 0-0.632-0.071-1.137-0.178-1.643-0.143-0.442-0.285-0.821-0.499-1.136-0.213-0.317-0.463-0.569-0.748-0.758-0.32-0.189-0.605-0.253-0.961-0.253-0.321 0-0.641 0.063-0.961 0.252-0.285 0.19-0.534 0.443-0.748 0.759s-0.392 0.694-0.499 1.199c-0.107 0.442-0.178 0.947-0.178 1.579 0 0.568 0.071 1.137 0.178 1.579 0.107 0.505 0.285 0.884 0.499 1.199s0.463 0.569 0.748 0.758c0.285 0.189 0.605 0.252 0.961 0.252zM34.26 10.127h1.602v7.957c0.071 2.21 3.205 2.147 3.133 0v-7.958h1.745l-0.036 8.146c0.036 4.168-6.41 4.168-6.446 0l0-8.145z"></path>
</symbol>
<symbol id="icon-6" viewBox="0 0 88 32">
<path d="M74.804 12.204c-0.043-0.102-0.108-0.163-0.177-0.163h-1.201c-0.109 0-0.205 0.15-0.227 0.361l-0.093 0.893c-0.267-0.47-0.532-0.771-0.914-1.061l-0.119-0.103c-0.015-0.010-0.029-0.022-0.044-0.027-1.304-0.562-2.614 0.21-3.686 2.171-0.536 0.968-0.942 2.090-1.211 3.298l1.577-12.583c0.014-0.1 0.002-0.21-0.031-0.291s-0.083-0.13-0.136-0.13h-1.461c-0.051 0-0.097 0.041-0.13 0.116l-6.36 14.101c0.223-2.113 1.472-13.807 1.472-13.807 0-0.023 0.004-0.048 0.004-0.070 0-0.076-0.012-0.154-0.039-0.214-0.032-0.079-0.083-0.126-0.134-0.126h-1.614c-0.051 0-0.099 0.044-0.132 0.116l-8.066 18.298c-0.136-2.664-0.78-5.565-0.78-5.565-1.081-4.351-3.486-5.76-4.85-3.265l-0.009 0.005-0.214 0.305c0.989-3.102 3.5-2.964 5.116 0.689 0 0 0.719 1.696 1.228 4.219 0.136-0.891 0.22-1.814 0.245-2.758-0.842-2.236-1.79-3.549-1.79-3.549-2.041-2.705-4.485-1.563-5.031 1.937l-0.008 0.015-0.105 0.474c0.067-3.661 2.275-6.004 4.603-4.429 0 0 1.096 0.791 2.203 2.541-0.015-0.139-0.030-0.279-0.050-0.419-0.119-0.924-0.293-1.802-0.516-2.618-1.291-1.098-2.435-1.302-2.435-1.302-2.458-0.335-4.282 3.049-3.864 6.618l-0.004 0.019 0.028 0.516c-0.873-3.237 0.442-7.432 2.858-8.358 0 0 1.123-0.383 2.503 0.021-0.35-0.726-0.749-1.362-1.192-1.899-1.384 0.319-2.416 1.26-2.416 1.26-2.212 2.12-2.931 6.846-1.66 9.529l0.001 0.015 0.156 0.422c-1.58-1.945-1.508-6.874 0.35-10.049 0 0 0.868-1.421 2.16-2.428-0.533-0.313-1.086-0.474-1.643-0.48-1.080 1.614-1.71 3.367-1.71 3.367-1.377 4.012-0.796 8.81 0.985 9.885l0.007 0.011 0.242 0.212c-1.863-0.131-3.055-4.47-2.254-9.044 0 0 0.369-1.973 1.183-4.047-0.466 0.238-0.907 0.585-1.32 1.020-0.526 2.464-0.624 4.609-0.624 4.609-0.171 4.827 1.553 8.411 3.37 7.592l0.008 0.005 0.264-0.057c-1.648 1.718-3.785-0.867-4.254-5.617 0 0-0.188-2.122 0-4.766-0.393 0.73-0.736 1.569-1.021 2.506 0.176 2.605 0.627 4.519 0.627 4.519 1.080 4.349 3.485 5.76 4.849 3.263l0.010-0.004 0.214-0.304c-0.989 3.101-3.5 2.963-5.115-0.689 0 0-0.828-2.032-1.261-4.399 0.001-0.111-0.016-0.218-0.052-0.302-0.044-0.102-0.109-0.163-0.179-0.163h-1.199c-0.11 0-0.205 0.15-0.228 0.361 0 0-0.092 0.275-0.134 0.816-0.266-0.468-0.582-0.74-0.87-0.985l-0.122-0.103c-0.014-0.010-0.029-0.022-0.043-0.027-1.303-0.562-2.613 0.21-3.686 2.171-0.634 1.147-1.089 2.506-1.348 3.976l-0.022 0.097 0.51-5.774c0.011-0.13-0.007-0.267-0.052-0.37s-0.11-0.162-0.178-0.161l-1.28 0.004c-0.112 0.001-0.208 0.158-0.228 0.376l-1.323 14.168c-0.012 0.133 0.007 0.271 0.051 0.375 0.044 0.101 0.11 0.16 0.178 0.16l1.349 0.006c0.114 0 0.211-0.16 0.229-0.379l0.51-5.765c0.006 0.036 0.010 0.060 0.010 0.060-0.005 0.573 0.019 1.154 0.074 1.734 0.198 2.167 1.176 4.188 2.23 4.599 0.919 0.327 1.903-0.131 2.873-1.308-0.019 0.206-0.050 0.516-0.050 0.516-0.003 0.027-0.004 0.055-0.004 0.084 0 0.106 0.019 0.209 0.053 0.291 0.043 0.103 0.109 0.16 0.179 0.16l1.191 0.006c0.112 0 0.208-0.155 0.228-0.372l1.048-11.151c0.784 1.829 1.809 3.391 1.809 3.391 2.041 2.707 4.484 1.564 5.030-1.934l0.008-0.015 0.106-0.475c-0.067 3.66-2.276 6.007-4.604 4.429 0 0-1.004-0.725-2.062-2.324 0.009 0.076 0.017 0.154 0.026 0.231 0.126 0.957 0.308 1.866 0.543 2.71 1.23 0.995 2.292 1.184 2.292 1.184 2.456 0.337 4.281-3.050 3.864-6.62l0.003-0.018-0.029-0.518c0.874 3.237-0.442 7.438-2.86 8.358 0 0-1.056 0.364-2.381 0.012 0.317 0.656 0.674 1.244 1.069 1.749 1.373-0.327 2.389-1.256 2.389-1.256 2.213-2.119 2.933-6.846 1.662-9.526l-0.003-0.020-0.156-0.419c1.58 1.945 1.509 6.873-0.349 10.049 0 0-0.886 1.445-2.196 2.455 0.361 0.24 0.733 0.409 1.109 0.506h0.536c1.1-1.63 1.742-3.421 1.742-3.421 1.378-4.012 0.797-8.812-0.985-9.884l-0.007-0.015-0.241-0.209c1.863 0.132 3.056 4.47 2.255 9.046 0 0-0.4 2.14-1.288 4.311 0.071-0.031 0.14-0.060 0.21-0.097 0.451-0.224 0.874-0.553 1.268-0.952 0.55-2.517 0.652-4.741 0.652-4.741 0.172-4.823-1.552-8.41-3.37-7.59l-0.008-0.004-0.263 0.055c1.647-1.716 3.785 0.869 4.255 5.619 0 0 0.271 2.18 0.068 4.763-0.039 0.373-0.118 0.913-0.272 1.491-0.046 0.16-0.104 0.35-0.174 0.57l0.002-0.006c-0.001 0.006-0.004 0.011-0.005 0.018s-0.002 0.007-0.002 0.013c-0.028 0.092-0.033 0.208-0.009 0.31 0.027 0.122 0.088 0.199 0.157 0.197h0.749c0.394-0.004 0.732-0.008 1.182 0.023 0.054 0.002 0.105-0.044 0.14-0.121l6.512-15.296c-0.275 2.791-1.054 9.966-1.612 15.003-0.001 0.025-0.003 0.049-0.003 0.073 0 0.077 0.013 0.153 0.037 0.213 0.034 0.082 0.083 0.128 0.138 0.128l1.317-0.023c0.050 0 0.097-0.042 0.13-0.118 0 0 5.841-13.422 6.589-15.137-0.312 2.802-1.164 9.878-1.772 14.858-0.005 0.027-0.007 0.051-0.007 0.079 0 0.074 0.013 0.149 0.038 0.21 0.033 0.083 0.083 0.131 0.137 0.131h1.558c0.080 0 0.15-0.107 0.169-0.261l0.674-5.375 0.094-0.756c0.003 0.216 0.005 0.386 0.005 0.386-0.004 0.573 0.020 1.154 0.075 1.734 0.196 2.167 1.177 4.188 2.229 4.599 0.919 0.327 1.904-0.131 2.874-1.308l-0.049 0.516c-0.003 0.027-0.004 0.055-0.004 0.084 0 0.106 0.019 0.209 0.053 0.291 0.045 0.103 0.111 0.16 0.179 0.16l1.191 0.006c0.113 0 0.209-0.155 0.229-0.372l1.076-11.227 0.258-3.026c0.001-0.111-0.016-0.218-0.054-0.302zM0 26.834v-0.282c0.007-0.029 0.016-0.057 0.028-0.082l9.622-21.787c0.033-0.073 0.081-0.117 0.132-0.117h1.553c0.051 0 0.1 0.046 0.134 0.126 0.025 0.060 0.039 0.14 0.039 0.214 0 0.022-0.002 0.047-0.005 0.070 0 0-1.205 11.693-1.429 13.807 0.76-1.685 6.361-14.101 6.361-14.101 0.032-0.075 0.081-0.116 0.129-0.116h1.463c0.054 0 0.105 0.048 0.137 0.13s0.044 0.191 0.030 0.291l-1.535 12.241c0.013-0.046 0.024-0.090 0.036-0.132 0.73-2.791 2.118-4.753 3.62-5.113 0.005-0.003 0.011-0.003 0.017-0.003 1.358-0.135 2.407 0.874 3.036 2.915l0.010 0.033c0.226 0.891 0.394 2.088 0.424 3.321 0.257-1.469 0.712-2.829 1.346-3.976 1.073-1.962 2.382-2.733 3.687-2.171 0.013 0.005 0.030 0.017 0.043 0.027l0.121 0.103c0.29 0.245 0.605 0.516 0.871 0.985 0.141-1.303 0.555-5.171 0.555-5.171 0.023-0.209 0.117-0.361 0.227-0.361h1.2c0.069 0 0.134 0.061 0.179 0.162 0.044 0.104 0.062 0.242 0.051 0.375l-1.751 18.536c-0.021 0.217-0.116 0.372-0.228 0.372l-1.191-0.006c-0.069 0-0.136-0.057-0.18-0.16-0.035-0.082-0.054-0.186-0.054-0.291 0-0.028 0.002-0.057 0.005-0.084 0 0 0.030-0.311 0.049-0.516-0.97 1.177-1.952 1.635-2.873 1.307-1.053-0.411-2.032-2.432-2.23-4.599-0.054-0.58-0.078-1.161-0.075-1.734-0.042 0.073-0.097 0.118-0.155 0.118l-5.527 0.005c-0.005 0.046-0.009 0.085-0.009 0.132 0 0.166 0.030 0.383 0.067 0.628l0.024 0.159c0.262 1.266 0.892 2.060 1.606 2.026 0.71-0.032 1.368-0.699 1.952-1.983 0.043-0.097 0.106-0.152 0.172-0.152h1.232c0.080 0 0.154 0.080 0.196 0.213 0.043 0.132 0.049 0.298 0.015 0.439-0.7 2.889-2.268 4.829-3.914 4.829-1.146-0.087-2.107-1.182-2.642-3.013-0.266-0.975-0.393-2.186-0.385-3.426l-0.723 5.768c-0.019 0.155-0.090 0.261-0.17 0.261h-1.559c-0.053 0-0.103-0.048-0.135-0.131-0.026-0.061-0.039-0.137-0.039-0.209 0-0.029 0.002-0.054 0.005-0.080 0.609-4.979 1.463-12.056 1.772-14.857l-6.588 15.137c-0.032 0.076-0.080 0.117-0.13 0.117l-1.317 0.023c-0.053 0-0.102-0.046-0.136-0.128-0.025-0.060-0.039-0.137-0.039-0.214 0-0.023 0-0.047 0.003-0.072 0.557-5.038 1.337-12.214 1.611-15.003l-6.512 15.296c-0.034 0.077-0.085 0.123-0.139 0.121-0.45-0.031-0.788-0.027-1.182-0.023h-0.75c-0.067 0.003-0.129-0.075-0.157-0.196zM72.662 19.945c-0.27 1.851-1.161 3.613-2.033 4.028-0.667 0.173-1.156 0.050-1.494-0.383-0.36-0.485-0.54-1.325-0.679-2.083-0.023-0.271-0.037-0.545-0.037-0.811 0-1.686 0.46-3.311 1.305-4.556 0.484-0.667 1.145-0.92 1.724-0.659 0.326 0.149 0.774 0.529 1.052 1.521 0.155 0.538 0.238 1.22 0.238 1.885 0 0.368-0.026 0.729-0.076 1.057zM18.391 17.818l3.581-0.067c-0.028-0.504-0.163-0.975-0.446-1.532-0.312-0.525-0.74-0.772-1.348-0.779-0.659 0.18-1.428 1.031-1.787 2.377zM29.468 19.945c0.051-0.329 0.075-0.689 0.075-1.057 0-0.666-0.082-1.348-0.238-1.885-0.281-0.993-0.726-1.373-1.054-1.521-0.577-0.261-1.238-0.009-1.724 0.659-0.843 1.245-1.303 2.869-1.303 4.556 0 0.267 0.013 0.54 0.037 0.811 0.139 0.758 0.319 1.598 0.678 2.083 0.34 0.433 0.83 0.556 1.494 0.383 0.871-0.415 1.763-2.178 2.034-4.028zM32.386 8.047l-0.28 2.98c-0.013 0.133 0.006 0.272 0.050 0.38 0.044 0.102 0.109 0.162 0.179 0.162h1.351c0.111 0 0.208-0.155 0.228-0.373l0.254-2.954c0.011-0.132-0.007-0.271-0.050-0.373s-0.109-0.164-0.176-0.165l-1.328-0.023c-0.111-0.002-0.207 0.154-0.228 0.366zM38.969 19.945c-0.271 1.851-1.163 3.613-2.033 4.028-0.666 0.173-1.154 0.050-1.495-0.383-0.359-0.485-0.538-1.325-0.678-2.083-0.024-0.271-0.037-0.545-0.037-0.811 0-1.686 0.459-3.311 1.304-4.556 0.486-0.667 1.145-0.92 1.724-0.659 0.327 0.149 0.773 0.529 1.052 1.521 0.156 0.538 0.239 1.22 0.239 1.885 0 0.368-0.026 0.729-0.077 1.057zM83.36 25.811l-2.225-7.017c0.18-0.418 2.074-4.949 2.458-5.837l-0.17 1.757c-0.013 0.134 0.006 0.271 0.051 0.374s0.108 0.165 0.178 0.165h0.589c-0.067 0.801-0.684 8.185-0.881 10.558zM76.884 12.907l0.026-0.328c0.014-0.132-0.006-0.27-0.048-0.373-0.045-0.103-0.109-0.164-0.177-0.164h-1.202c-0.111-0.003-0.208 0.151-0.229 0.368l-0.034 0.357-1.284 13.784c-0.011 0.133 0.009 0.272 0.055 0.375s0.114 0.163 0.184 0.159l0.593-0.017h0.557c0.111 0 0.204-0.152 0.225-0.363l0.881-8.554c0.291-2.168 1.022-2.813 1.669-3.001 0.035-0.009 0.165-0.005 0.193-0.040-0.443 5.186-0.968 11.326-0.977 11.43-0.011 0.129 0.008 0.264 0.052 0.367 0.043 0.101 0.109 0.16 0.175 0.16h1.294c0.101 0 0.192-0.128 0.22-0.319 0.042-0.25 0.351-3.774 0.536-5.892 0.48 1.427 2.010 6.002 2.010 6.002 0.043 0.128 0.116 0.204 0.193 0.204l1.547 0.005c0.028 0 0.054-0.013 0.080-0.029 0.033 0.029 0.069 0.049 0.106 0.046l1.305-0.017c0.113-0.002 0.208-0.16 0.226-0.373l1.008-11.436 1.499-0.005c0.112 0 0.208-0.159 0.228-0.376l0.202-2.308c0.003-0.025 0.004-0.049 0.004-0.077 0-0.104-0.020-0.208-0.054-0.29-0.044-0.102-0.108-0.161-0.178-0.161h-1.477c0.072-0.816 0.335-3.825 0.335-3.825 0.002-0.025 0.003-0.051 0.003-0.076 0-0.108-0.018-0.212-0.054-0.292-0.043-0.105-0.109-0.161-0.176-0.161h-1.298c-0.112 0-0.208 0.158-0.228 0.375 0 0-0.288 3.364-0.342 3.98-0.117 0.007-0.238 0.012-0.238 0.012l-0.203 0.003-0.215-0.007c-0.082-0.004-0.156 0.079-0.199 0.21-0.042-0.124-0.112-0.205-0.191-0.205l-1.536-0.005c-0.065 0-0.126 0.054-0.171 0.146 0 0-1.195 2.69-1.83 4.041 0.185-2.14 0.697-8.012 0.697-8.012 0.002-0.027 0.003-0.052 0.003-0.079 0-0.106-0.020-0.209-0.055-0.29-0.043-0.105-0.108-0.163-0.176-0.163l-1.293-0.005c-0.114-0.002-0.211 0.158-0.229 0.374-0.030 0.351-0.164 1.913-0.344 3.996l-0.006-0.018c-0.045-0.105-0.111-0.159-0.182-0.155-0.55 0.032-1.048 0.475-1.481 1.024z"></path>
<path d="M49.416 16c0 1.354-1.061 2.451-2.369 2.451s-2.369-1.097-2.369-2.451c0-1.354 1.061-2.451 2.369-2.451s2.369 1.097 2.369 2.451z"></path>
</symbol>
<symbol id="icon-8" viewBox="0 0 88 32">
<path d="M45.338 27.465c3.074 0 5.123-3.222 5.123-8.659v-13.91h-3.363v13.691c0 2.532-0.563 3.785-1.742 3.785-1.138 0-1.625-1.284-1.625-3.785v-13.691h-3.381v13.91c0.005 5.558 1.876 8.659 4.988 8.659h0.001zM55.452 15.148h-0.617v-5.28h0.887c1.491 0 2.206 0.752 2.206 2.592-0.005 1.998-0.813 2.688-2.476 2.688zM59.47 6.112c-0.929-1.059-2.029-1.217-3.478-1.217h-4.56v22.224h3.362v-7.157h0.967c1.43 0 2.512-0.158 3.386-0.999 1.369-1.344 2.183-3.717 2.183-6.595 0-2.787-0.636-4.882-1.858-6.256zM79.924 14.742l5.123 12.378h2.954v-22.225h-3.357v12.348l-5.049-12.348h-3.033v22.225h3.363v-12.378zM32.426 22.027c-1.895 0-3.614-2.688-3.614-6.189 0-3.252 1.603-5.842 3.655-5.842 1.932 0 3.539 2.59 3.539 5.843-0.005 3.62-1.607 6.189-3.581 6.189v-0.001zM37.354 7.772c-1.333-2.125-3.070-3.282-4.909-3.282-1.951 0-3.655 1.096-5.007 3.252s-2.090 4.972-2.090 8.036c0 3.282 0.66 6.031 1.951 8.255 1.351 2.313 3.093 3.499 5.122 3.499 1.913 0 3.73-1.216 5.062-3.469 1.296-2.156 1.993-5.003 1.993-8.187 0.005-3.043-0.729-5.889-2.123-8.105zM68.847 22.027c-1.895 0-3.613-2.688-3.613-6.189 0-3.252 1.607-5.842 3.655-5.842 1.932 0 3.539 2.59 3.539 5.843-0.005 3.62-1.612 6.189-3.581 6.189v-0.001zM73.774 7.772c-1.332-2.125-3.075-3.282-4.908-3.282-1.956 0-3.655 1.096-5.007 3.252s-2.090 4.972-2.090 8.036c0 3.282 0.66 6.031 1.95 8.255 1.357 2.313 3.093 3.499 5.123 3.499 1.913 0 3.729-1.216 5.062-3.469 1.296-2.156 1.993-5.003 1.993-8.187 0.005-3.043-0.73-5.889-2.123-8.105zM1.946 24.025c1.351 2.313 3.075 3.531 5.104 3.531 2.34 0 4.542-1.878 5.856-4.973 0.794-1.878 1.18-4.003 1.18-6.504 0-0.466-0.019-0.969-0.037-1.473h-7.83v4.439h3.925c-0.679 1.939-1.816 3.004-3.093 3.004-1.895 0-3.595-2.718-3.595-6.256 0-3.192 1.584-5.843 3.595-5.843 1.082 0 1.969 0.722 2.824 2.156h3.827c-1.101-4.755-3.673-7.662-6.609-7.662-1.951 0-3.651 1.127-5.007 3.282-1.351 2.156-2.085 4.973-2.085 8.036-0.005 3.29 0.65 6.038 1.946 8.262v-0.001zM18.953 15.148h-0.655v-5.28h0.929c1.486 0 2.201 0.752 2.201 2.592 0 1.998-0.813 2.688-2.475 2.688zM21.717 19.489c1.951-0.878 3.112-3.561 3.112-7.157 0-2.749-0.637-4.845-1.858-6.219-0.929-1.059-2.029-1.217-3.479-1.217h-4.561v22.224h3.362v-7.157l2.629 7.157h4.157l-3.362-7.631z"></path>
</symbol>
<symbol id="icon-footer__in" viewBox="0 0 32 32">
<path fill="none" stroke="#fff" style="stroke: var(--color1, #fff)" stroke-linejoin="miter" stroke-linecap="butt" stroke-miterlimit="4" stroke-width="1.6" d="M0.8 0.8h30.4v30.4h-30.4v-30.4z"></path>
<path fill="#fff" style="fill: var(--color1, #fff)" d="M12.024 22.3h-2.986v-8.412h2.986v8.412zM10.529 12.74c-0.955 0-1.729-0.692-1.729-1.527s0.775-1.513 1.729-1.513c0.955 0 1.729 0.678 1.729 1.513s-0.775 1.527-1.729 1.527zM23.2 22.3h-2.98v-4.095c0-0.976-0.022-2.227-1.552-2.227-1.552 0-1.79 1.060-1.79 2.157v4.165h-2.983v-8.412h2.864v1.147h0.042c0.399-0.661 1.373-1.358 2.825-1.358 3.021 0 3.578 1.741 3.578 4.002v4.621h-0.003z"></path>
<symbol id="icon-copyright" viewBox="0 0 85 32">
<path fill="#fff" style="fill: var(--color1, #fff)" d="M34.802 0l8.12 20.448-33.272 11.552-9.651-29.776 34.802-2.224zM21.828 10.663c-2.165 1.199-3.28 3.265-3.106 6.038 0.171 2.727 1.521 4.474 3.766 5.396 1.809 0.742 3.665 0.843 5.547 0.54 0.509-0.082 1.008-0.238 1.487-0.373l0.285-0.078v-2.948c-1.308 0.141-2.497 0.425-3.671 0.361-1.706-0.092-2.829-1.447-2.914-3.188-0.123-2.527 1.566-4.065 4.044-3.625 0.657 0.116 1.297 0.359 1.972 0.577l0.292 0.091v-3.299c-2.663-0.868-5.247-0.852-7.701 0.507zM49.999 17.941c0.218 0 0.427 0.034 0.627 0.102 0.199 0.068 0.374 0.206 0.525 0.414l-0.44 0.453c-0.068-0.119-0.164-0.215-0.288-0.287s-0.266-0.109-0.424-0.109c-0.15 0-0.275 0.022-0.375 0.067s-0.18 0.102-0.24 0.173-0.103 0.146-0.127 0.226c-0.025 0.081-0.036 0.156-0.036 0.224 0 0.191 0.048 0.338 0.146 0.44s0.219 0.185 0.364 0.249c0.145 0.064 0.303 0.121 0.475 0.172s0.329 0.123 0.474 0.214c0.145 0.092 0.267 0.215 0.364 0.37 0.099 0.155 0.147 0.369 0.147 0.641 0 0.217-0.037 0.413-0.11 0.586-0.074 0.175-0.173 0.322-0.297 0.441s-0.271 0.211-0.44 0.274c-0.17 0.065-0.351 0.096-0.542 0.096-0.257 0-0.499-0.052-0.728-0.153-0.23-0.102-0.413-0.259-0.548-0.472l0.446-0.434c0.098 0.166 0.223 0.288 0.375 0.367s0.31 0.118 0.471 0.118c0.091 0 0.182-0.016 0.276-0.048s0.179-0.079 0.257-0.143c0.077-0.064 0.141-0.143 0.189-0.236s0.074-0.203 0.074-0.326c0-0.174-0.049-0.307-0.147-0.399s-0.219-0.168-0.364-0.23c-0.145-0.061-0.303-0.121-0.474-0.178s-0.33-0.137-0.474-0.239c-0.145-0.102-0.267-0.24-0.364-0.412-0.098-0.173-0.147-0.406-0.147-0.699 0-0.132 0.025-0.272 0.076-0.421s0.131-0.285 0.24-0.409c0.109-0.123 0.249-0.226 0.42-0.309s0.377-0.124 0.618-0.124zM78.813 19.472c0.237 0 0.437 0.047 0.601 0.14s0.298 0.216 0.404 0.367c0.106 0.151 0.181 0.322 0.229 0.511 0.046 0.189 0.070 0.382 0.070 0.578v0.204h-2.146c0 0.132 0.026 0.252 0.077 0.361 0.050 0.108 0.117 0.201 0.2 0.277s0.179 0.136 0.287 0.179c0.109 0.042 0.222 0.064 0.339 0.064 0.158 0 0.295-0.042 0.412-0.124s0.224-0.192 0.322-0.329l0.383 0.332c-0.282 0.413-0.676 0.619-1.185 0.619-0.211 0-0.403-0.041-0.573-0.121s-0.316-0.192-0.434-0.335c-0.119-0.142-0.21-0.311-0.275-0.504-0.063-0.194-0.095-0.403-0.095-0.629s0.035-0.435 0.104-0.629c0.070-0.194 0.166-0.362 0.288-0.504s0.268-0.254 0.437-0.335c0.17-0.081 0.354-0.121 0.554-0.121zM72.852 19.472c0.236 0 0.437 0.047 0.601 0.14s0.298 0.216 0.404 0.367c0.106 0.151 0.181 0.322 0.228 0.511s0.071 0.382 0.071 0.578v0.204h-2.146c0 0.132 0.026 0.252 0.077 0.361 0.050 0.108 0.117 0.201 0.2 0.277s0.179 0.136 0.288 0.179c0.109 0.042 0.222 0.064 0.339 0.064 0.158 0 0.295-0.042 0.412-0.124s0.224-0.192 0.322-0.329l0.384 0.332c-0.282 0.413-0.677 0.619-1.185 0.619-0.212 0-0.403-0.041-0.573-0.121s-0.316-0.192-0.435-0.335-0.21-0.311-0.274-0.504c-0.063-0.194-0.096-0.403-0.096-0.629s0.035-0.435 0.105-0.629c0.070-0.194 0.165-0.362 0.288-0.504 0.122-0.142 0.268-0.254 0.437-0.335s0.354-0.121 0.554-0.121zM65.213 19.472c0.237 0 0.437 0.047 0.601 0.14s0.298 0.216 0.404 0.367c0.106 0.151 0.181 0.322 0.229 0.511 0.046 0.189 0.069 0.382 0.069 0.578v0.204h-2.145c0 0.132 0.026 0.252 0.077 0.361s0.117 0.201 0.201 0.277c0.082 0.077 0.179 0.136 0.287 0.179s0.222 0.064 0.339 0.064c0.158 0 0.295-0.042 0.412-0.124s0.223-0.192 0.322-0.329l0.383 0.332c-0.282 0.413-0.676 0.619-1.185 0.619-0.211 0-0.402-0.041-0.573-0.121s-0.316-0.192-0.434-0.335c-0.118-0.142-0.21-0.311-0.274-0.504s-0.095-0.403-0.095-0.629c0-0.225 0.034-0.435 0.104-0.629s0.166-0.362 0.288-0.504c0.123-0.142 0.268-0.254 0.437-0.335s0.354-0.121 0.553-0.121h0.001zM62.537 19.478c0.195 0 0.383 0.039 0.562 0.118s0.334 0.198 0.466 0.36l-0.384 0.396c-0.094-0.111-0.193-0.195-0.296-0.252-0.105-0.057-0.227-0.086-0.371-0.086-0.139 0-0.26 0.029-0.364 0.086s-0.19 0.137-0.26 0.236c-0.069 0.1-0.122 0.215-0.157 0.345-0.036 0.129-0.053 0.264-0.053 0.404s0.020 0.274 0.061 0.399c0.042 0.126 0.1 0.236 0.175 0.329s0.165 0.167 0.271 0.22c0.106 0.053 0.225 0.079 0.356 0.079 0.142 0 0.265-0.028 0.366-0.086s0.197-0.141 0.283-0.252l0.362 0.408c-0.132 0.166-0.285 0.286-0.461 0.358-0.174 0.072-0.361 0.108-0.556 0.108-0.207 0-0.397-0.038-0.567-0.115s-0.319-0.184-0.443-0.322c-0.124-0.138-0.22-0.304-0.288-0.498s-0.102-0.407-0.102-0.641 0.034-0.449 0.102-0.645c0.068-0.196 0.163-0.364 0.285-0.504s0.269-0.25 0.44-0.328c0.171-0.079 0.362-0.118 0.573-0.118zM53.087 19.472c0.237 0 0.438 0.047 0.601 0.14s0.298 0.216 0.403 0.367c0.106 0.151 0.182 0.322 0.229 0.511 0.046 0.189 0.070 0.382 0.070 0.578v0.204h-2.145c0 0.132 0.025 0.252 0.076 0.361s0.117 0.201 0.201 0.277c0.082 0.077 0.178 0.136 0.288 0.179s0.222 0.064 0.339 0.064c0.158 0 0.295-0.042 0.412-0.124 0.116-0.083 0.223-0.192 0.321-0.329l0.384 0.332c-0.282 0.413-0.677 0.619-1.186 0.619-0.211 0-0.401-0.041-0.573-0.121s-0.316-0.192-0.434-0.335c-0.118-0.142-0.21-0.311-0.274-0.504s-0.096-0.403-0.096-0.629c0-0.225 0.034-0.435 0.105-0.629s0.165-0.362 0.288-0.504c0.122-0.142 0.268-0.254 0.437-0.335s0.354-0.121 0.553-0.121zM7.676 10.006l-0.803 0.002v12.602h4.202v-3.744l0.761-0.032c0.982-0.044 1.829-0.108 2.536-0.352 1.021-0.354 1.716-0.805 2.486-1.587 1.742-1.771 1.311-4.836-0.758-6.073-0.674-0.403-1.461-0.745-2.209-0.778-1.274-0.055-2.55-0.060-3.849-0.054l-2.365 0.015zM75.030 19.548l0.802 2.316 0.768-2.316h0.542l-1.050 3.025h-0.559l-1.090-3.025h0.587zM57.355 19.548l0.802 2.316 0.768-2.316h0.541l-1.050 3.025h-0.558l-1.090-3.025h0.587zM56.322 19.472c0.083 0 0.158 0.013 0.225 0.038l-0.022 0.619c-0.041-0.013-0.082-0.024-0.124-0.032s-0.083-0.013-0.124-0.013c-0.248 0-0.438 0.079-0.57 0.236s-0.198 0.402-0.198 0.734v1.518h-0.508v-3.025h0.508v0.466h0.011c0.034-0.081 0.079-0.155 0.135-0.22 0.057-0.066 0.12-0.122 0.189-0.169s0.146-0.084 0.229-0.112c0.083-0.027 0.165-0.042 0.249-0.042zM81.274 17.749v4.824h-0.508v-4.824h0.508zM69.368 18.055v3.943h1.835v0.574h-2.377v-4.518h0.542zM60.46 19.548v3.025h-0.508v-3.025h0.508zM85.333 18.055v4.518h-0.542v-3.816l-0.734 0.766-0.316-0.428 1.113-1.040h0.479zM35.952 9.925h-4.266v12.6h4.266v-12.6zM53.075 19.931c-0.124 0-0.238 0.027-0.342 0.080-0.103 0.053-0.191 0.122-0.262 0.207s-0.128 0.18-0.167 0.284c-0.039 0.104-0.058 0.207-0.058 0.309h1.603c-0.004-0.128-0.022-0.244-0.053-0.351-0.033-0.106-0.081-0.199-0.145-0.278s-0.144-0.14-0.239-0.185c-0.097-0.045-0.209-0.067-0.337-0.067zM78.801 19.931c-0.125 0-0.238 0.027-0.341 0.080-0.104 0.053-0.191 0.122-0.262 0.207s-0.127 0.18-0.167 0.284c-0.039 0.104-0.060 0.207-0.060 0.309h1.604c-0.004-0.128-0.022-0.244-0.053-0.351s-0.080-0.199-0.144-0.278-0.144-0.14-0.24-0.185c-0.096-0.045-0.209-0.067-0.336-0.067zM72.84 19.931c-0.125 0-0.239 0.027-0.342 0.080s-0.191 0.122-0.262 0.207c-0.072 0.085-0.127 0.18-0.167 0.284-0.039 0.104-0.059 0.207-0.059 0.309h1.604c-0.004-0.128-0.022-0.244-0.053-0.351-0.033-0.106-0.081-0.199-0.144-0.278-0.065-0.079-0.144-0.14-0.24-0.185-0.097-0.045-0.209-0.067-0.336-0.067zM65.201 19.931c-0.124 0-0.238 0.027-0.341 0.080s-0.19 0.122-0.262 0.207c-0.071 0.085-0.127 0.18-0.167 0.284-0.039 0.104-0.059 0.207-0.059 0.309h1.604c-0.004-0.128-0.022-0.244-0.054-0.351s-0.079-0.199-0.144-0.278c-0.063-0.079-0.144-0.14-0.239-0.185-0.097-0.045-0.209-0.067-0.337-0.067zM60.206 18.043c0.101 0 0.189 0.042 0.262 0.124s0.109 0.181 0.109 0.297c0 0.114-0.036 0.214-0.109 0.296s-0.162 0.125-0.262 0.125c-0.102 0-0.19-0.042-0.263-0.125s-0.11-0.182-0.11-0.296c0-0.115 0.036-0.214 0.11-0.297s0.161-0.124 0.263-0.124zM13.443 13.325c0.262 0.409 0.293 1.292 0.078 1.749-0.415 0.881-1.184 0.935-2.013 0.926l-0.402-0.006v-3.325c0.912-0.197 1.8-0.182 2.337 0.656zM57.321 9.8c0.219 0 0.427 0.034 0.627 0.102s0.375 0.206 0.525 0.414l-0.441 0.453c-0.068-0.119-0.164-0.215-0.288-0.287s-0.265-0.109-0.423-0.109c-0.15 0-0.275 0.022-0.375 0.067s-0.18 0.102-0.24 0.173-0.102 0.146-0.127 0.226c-0.025 0.081-0.037 0.156-0.037 0.224 0 0.192 0.049 0.338 0.147 0.44 0.099 0.102 0.22 0.185 0.365 0.249s0.302 0.121 0.474 0.172c0.171 0.052 0.33 0.123 0.474 0.214 0.146 0.092 0.267 0.215 0.364 0.37s0.147 0.369 0.147 0.641c0 0.217-0.036 0.413-0.11 0.587-0.073 0.174-0.172 0.321-0.296 0.44-0.125 0.12-0.271 0.211-0.441 0.275s-0.35 0.096-0.542 0.096c-0.255 0-0.498-0.052-0.728-0.153s-0.412-0.259-0.547-0.471l0.446-0.435c0.098 0.166 0.223 0.288 0.375 0.367s0.31 0.118 0.471 0.118c0.091 0 0.183-0.016 0.277-0.048s0.18-0.079 0.257-0.143c0.078-0.065 0.141-0.144 0.189-0.237 0.050-0.093 0.074-0.202 0.074-0.326 0-0.174-0.049-0.307-0.147-0.399-0.098-0.091-0.219-0.168-0.364-0.23-0.146-0.061-0.303-0.121-0.475-0.179-0.171-0.057-0.329-0.137-0.474-0.239s-0.267-0.24-0.364-0.411c-0.098-0.173-0.148-0.406-0.148-0.699 0-0.132 0.026-0.272 0.076-0.421 0.051-0.149 0.131-0.285 0.241-0.409s0.249-0.226 0.42-0.309c0.171-0.083 0.378-0.124 0.618-0.124zM54.182 9.8c0.219 0 0.427 0.034 0.626 0.102 0.2 0.068 0.375 0.206 0.526 0.414l-0.44 0.453c-0.068-0.119-0.164-0.215-0.288-0.287s-0.266-0.109-0.424-0.109c-0.15 0-0.276 0.022-0.375 0.067s-0.18 0.102-0.239 0.173c-0.061 0.070-0.103 0.146-0.127 0.226s-0.037 0.156-0.037 0.224c0 0.192 0.049 0.338 0.147 0.44s0.219 0.185 0.364 0.249c0.145 0.064 0.303 0.121 0.475 0.172 0.171 0.052 0.33 0.123 0.474 0.214 0.146 0.092 0.267 0.215 0.364 0.37 0.099 0.155 0.147 0.369 0.147 0.641 0 0.217-0.036 0.413-0.109 0.587-0.074 0.174-0.173 0.321-0.297 0.44s-0.271 0.211-0.441 0.275c-0.169 0.064-0.349 0.096-0.541 0.096-0.256 0-0.499-0.052-0.728-0.153s-0.412-0.259-0.548-0.471l0.446-0.435c0.098 0.166 0.223 0.288 0.375 0.367 0.153 0.078 0.31 0.118 0.472 0.118 0.090 0 0.182-0.016 0.276-0.048s0.18-0.079 0.257-0.143c0.077-0.065 0.14-0.144 0.189-0.237 0.049-0.093 0.073-0.202 0.073-0.326 0-0.174-0.049-0.307-0.146-0.399-0.098-0.091-0.219-0.168-0.364-0.23-0.146-0.061-0.303-0.121-0.475-0.179-0.171-0.057-0.329-0.137-0.474-0.239s-0.266-0.24-0.364-0.411c-0.098-0.173-0.147-0.406-0.147-0.699 0-0.132 0.026-0.272 0.076-0.421s0.131-0.285 0.241-0.409c0.109-0.123 0.249-0.226 0.421-0.309 0.171-0.083 0.377-0.124 0.618-0.124zM62.717 9.8c0.264 0 0.522 0.058 0.777 0.173s0.462 0.29 0.624 0.529l-0.452 0.389c-0.113-0.166-0.256-0.293-0.429-0.383s-0.352-0.134-0.536-0.134c-0.226 0-0.43 0.048-0.613 0.144s-0.339 0.226-0.469 0.392c-0.13 0.166-0.23 0.361-0.302 0.584-0.071 0.223-0.107 0.462-0.107 0.717 0 0.238 0.034 0.464 0.102 0.677s0.165 0.4 0.293 0.561c0.128 0.162 0.284 0.289 0.469 0.383s0.393 0.14 0.627 0.14c0.229 0 0.431-0.053 0.604-0.16s0.32-0.255 0.441-0.447l0.457 0.389-0.046 0.066c-0.029 0.038-0.066 0.083-0.111 0.135-0.075 0.087-0.175 0.174-0.299 0.261s-0.274 0.164-0.449 0.23c-0.174 0.066-0.377 0.099-0.606 0.099-0.316 0-0.601-0.068-0.855-0.204-0.255-0.136-0.47-0.315-0.65-0.536-0.179-0.221-0.315-0.471-0.409-0.75s-0.141-0.561-0.141-0.846c0-0.349 0.051-0.671 0.153-0.967 0.101-0.296 0.243-0.551 0.426-0.766s0.403-0.381 0.658-0.501c0.255-0.119 0.538-0.179 0.846-0.179zM70.661 10.559v0.85h0.729v0.497h-0.729v1.372c0 0.085 0.002 0.17 0.006 0.252s0.018 0.157 0.042 0.224c0.024 0.066 0.062 0.119 0.113 0.159 0.050 0.040 0.125 0.060 0.222 0.060 0.060 0 0.122-0.007 0.187-0.019 0.063-0.013 0.122-0.036 0.174-0.070v0.523c-0.060 0.038-0.138 0.065-0.234 0.079s-0.171 0.023-0.222 0.023c-0.196 0-0.348-0.031-0.455-0.093s-0.186-0.141-0.237-0.239c-0.051-0.098-0.081-0.208-0.090-0.329-0.010-0.121-0.015-0.243-0.015-0.367v-1.576h-0.587v-0.498h0.587v-0.849h0.509zM82.453 9.608v4.824h-0.508v-0.433h-0.011c-0.099 0.161-0.233 0.287-0.404 0.375-0.172 0.089-0.347 0.134-0.529 0.134-0.207 0-0.394-0.041-0.561-0.121-0.168-0.082-0.311-0.194-0.429-0.339s-0.21-0.312-0.274-0.504c-0.065-0.191-0.097-0.4-0.097-0.625s0.032-0.435 0.097-0.629c0.063-0.193 0.155-0.362 0.274-0.504s0.261-0.254 0.429-0.335c0.167-0.081 0.354-0.121 0.561-0.121 0.193 0 0.373 0.046 0.542 0.137s0.299 0.215 0.39 0.373h0.011v-2.233h0.508zM77.858 11.331c0.237 0 0.438 0.047 0.602 0.14s0.298 0.216 0.403 0.367c0.106 0.151 0.182 0.321 0.229 0.51s0.070 0.382 0.070 0.578v0.204h-2.145c0 0.132 0.025 0.252 0.076 0.361s0.117 0.201 0.201 0.277c0.083 0.077 0.179 0.137 0.287 0.179s0.222 0.064 0.339 0.064c0.158 0 0.295-0.042 0.412-0.124s0.223-0.192 0.321-0.329l0.384 0.332c-0.282 0.413-0.677 0.619-1.185 0.619-0.212 0-0.402-0.041-0.573-0.122s-0.316-0.192-0.435-0.334c-0.118-0.143-0.21-0.311-0.274-0.504-0.064-0.194-0.096-0.403-0.096-0.629 0-0.225 0.034-0.435 0.105-0.629 0.069-0.193 0.165-0.362 0.288-0.504s0.268-0.254 0.437-0.335c0.169-0.081 0.354-0.121 0.553-0.121v-0.001zM65.952 11.331c0.238 0 0.437 0.047 0.602 0.14s0.298 0.216 0.403 0.367c0.106 0.151 0.182 0.321 0.229 0.51 0.046 0.189 0.070 0.382 0.070 0.578v0.204h-2.145c0 0.132 0.026 0.252 0.077 0.361 0.050 0.109 0.117 0.201 0.2 0.277s0.179 0.137 0.287 0.179c0.109 0.042 0.222 0.064 0.34 0.064 0.158 0 0.295-0.042 0.412-0.124s0.223-0.192 0.322-0.329l0.383 0.332c-0.282 0.413-0.677 0.619-1.186 0.619-0.211 0-0.401-0.041-0.573-0.122s-0.316-0.192-0.435-0.334-0.21-0.311-0.274-0.504c-0.063-0.194-0.095-0.403-0.095-0.629 0-0.225 0.035-0.435 0.105-0.629s0.166-0.362 0.288-0.504c0.122-0.143 0.268-0.254 0.437-0.335s0.354-0.121 0.553-0.121v-0.001zM50.157 9.915c0.282 0 0.53 0.036 0.742 0.108s0.397 0.169 0.553 0.29c0.156 0.121 0.286 0.26 0.389 0.418s0.185 0.319 0.246 0.485c0.060 0.166 0.103 0.332 0.13 0.498s0.040 0.319 0.040 0.459c0 0.289-0.048 0.569-0.141 0.84-0.095 0.27-0.235 0.51-0.418 0.721s-0.413 0.38-0.687 0.508c-0.272 0.128-0.588 0.191-0.945 0.191h-1.304v-4.518h1.394zM74.511 9.532c0.057 0 0.116 0.002 0.178 0.006s0.129 0.017 0.201 0.038l-0.057 0.511c-0.049-0.021-0.095-0.036-0.141-0.045s-0.094-0.013-0.147-0.013c-0.094 0-0.17 0.016-0.226 0.048-0.057 0.033-0.101 0.078-0.133 0.138s-0.053 0.13-0.062 0.214c-0.010 0.083-0.014 0.178-0.014 0.284v0.696h0.605v0.497h-0.61v2.527h-0.508v-2.527h-0.575v-0.498h0.575v-0.676c0-0.404 0.069-0.705 0.206-0.903s0.373-0.296 0.708-0.296l0.001-0.001zM75.826 11.408v3.025h-0.508v-3.025h0.508zM72.591 11.408v3.025h-0.508v-3.025h0.508zM69.187 11.331c0.083 0 0.158 0.013 0.226 0.038l-0.022 0.619c-0.041-0.013-0.083-0.024-0.124-0.033-0.041-0.008-0.082-0.012-0.124-0.012-0.249 0-0.438 0.079-0.571 0.236-0.131 0.158-0.197 0.402-0.197 0.734v1.518h-0.508v-3.024h0.508v0.466h0.011c0.034-0.081 0.079-0.155 0.136-0.22s0.119-0.122 0.189-0.169c0.069-0.047 0.145-0.084 0.229-0.112 0.082-0.028 0.165-0.042 0.248-0.042zM81.065 11.867c-0.136 0-0.258 0.027-0.367 0.080s-0.202 0.126-0.277 0.216c-0.075 0.092-0.134 0.203-0.175 0.332s-0.061 0.271-0.061 0.424c0 0.153 0.020 0.295 0.061 0.425s0.1 0.24 0.175 0.331c0.075 0.092 0.168 0.164 0.277 0.217 0.109 0.054 0.231 0.080 0.367 0.080 0.135 0 0.257-0.026 0.366-0.080 0.109-0.053 0.202-0.126 0.276-0.217 0.076-0.091 0.134-0.202 0.175-0.331 0.042-0.13 0.062-0.272 0.062-0.425s-0.020-0.294-0.062-0.424c-0.041-0.13-0.099-0.241-0.175-0.332-0.075-0.091-0.167-0.163-0.276-0.216s-0.231-0.080-0.366-0.080zM50.117 10.489h-0.813v3.369h0.684c0.229 0 0.446-0.035 0.652-0.105s0.385-0.175 0.539-0.316c0.155-0.14 0.277-0.316 0.368-0.526s0.136-0.457 0.136-0.737c0-0.144-0.021-0.313-0.063-0.507s-0.119-0.378-0.234-0.552c-0.115-0.175-0.273-0.322-0.477-0.444s-0.467-0.181-0.79-0.181zM77.847 11.79c-0.124 0-0.238 0.027-0.342 0.080s-0.191 0.122-0.262 0.207c-0.071 0.085-0.127 0.18-0.167 0.285-0.039 0.103-0.059 0.206-0.059 0.309h1.604c-0.004-0.128-0.022-0.244-0.054-0.351s-0.080-0.199-0.144-0.278-0.144-0.14-0.239-0.185c-0.097-0.045-0.209-0.067-0.337-0.067zM65.94 11.79c-0.124 0-0.237 0.027-0.341 0.080s-0.19 0.122-0.262 0.207c-0.071 0.085-0.128 0.18-0.167 0.285-0.039 0.103-0.059 0.206-0.059 0.309h1.603c-0.004-0.128-0.021-0.244-0.053-0.351s-0.080-0.199-0.145-0.278c-0.063-0.079-0.144-0.14-0.239-0.185-0.097-0.045-0.209-0.067-0.337-0.067zM72.337 9.902c0.102 0 0.189 0.042 0.262 0.124s0.11 0.182 0.11 0.296c0 0.115-0.037 0.214-0.11 0.297s-0.161 0.124-0.262 0.124c-0.101 0-0.189-0.042-0.262-0.124s-0.11-0.182-0.11-0.297c0-0.114 0.037-0.213 0.11-0.296s0.161-0.124 0.262-0.124zM75.572 9.902c0.102 0 0.189 0.042 0.263 0.124 0.073 0.083 0.109 0.182 0.109 0.296s-0.037 0.214-0.109 0.297c-0.074 0.083-0.161 0.124-0.263 0.124s-0.189-0.042-0.262-0.124c-0.073-0.083-0.11-0.182-0.11-0.297s0.037-0.213 0.11-0.296c0.073-0.083 0.161-0.124 0.262-0.124zM33.78 3.039c-1.582-0.004-2.603 1.070-2.614 2.751-0.012 1.677 1.018 2.788 2.586 2.792 1.596 0.004 2.603-1.061 2.606-2.758 0.003-1.695-1.001-2.78-2.578-2.785z"></path>
</symbol>
</symbol>

<symbol id="icon-copyright" viewBox="0 0 85 32">
<path fill="#fff" style="fill: var(--color1, #fff)" d="M34.802 0l8.12 20.448-33.272 11.552-9.651-29.776 34.802-2.224zM21.828 10.663c-2.165 1.199-3.28 3.265-3.106 6.038 0.171 2.727 1.521 4.474 3.766 5.396 1.809 0.742 3.665 0.843 5.547 0.54 0.509-0.082 1.008-0.238 1.487-0.373l0.285-0.078v-2.948c-1.308 0.141-2.497 0.425-3.671 0.361-1.706-0.092-2.829-1.447-2.914-3.188-0.123-2.527 1.566-4.065 4.044-3.625 0.657 0.116 1.297 0.359 1.972 0.577l0.292 0.091v-3.299c-2.663-0.868-5.247-0.852-7.701 0.507zM49.999 17.941c0.218 0 0.427 0.034 0.627 0.102 0.199 0.068 0.374 0.206 0.525 0.414l-0.44 0.453c-0.068-0.119-0.164-0.215-0.288-0.287s-0.266-0.109-0.424-0.109c-0.15 0-0.275 0.022-0.375 0.067s-0.18 0.102-0.24 0.173-0.103 0.146-0.127 0.226c-0.025 0.081-0.036 0.156-0.036 0.224 0 0.191 0.048 0.338 0.146 0.44s0.219 0.185 0.364 0.249c0.145 0.064 0.303 0.121 0.475 0.172s0.329 0.123 0.474 0.214c0.145 0.092 0.267 0.215 0.364 0.37 0.099 0.155 0.147 0.369 0.147 0.641 0 0.217-0.037 0.413-0.11 0.586-0.074 0.175-0.173 0.322-0.297 0.441s-0.271 0.211-0.44 0.274c-0.17 0.065-0.351 0.096-0.542 0.096-0.257 0-0.499-0.052-0.728-0.153-0.23-0.102-0.413-0.259-0.548-0.472l0.446-0.434c0.098 0.166 0.223 0.288 0.375 0.367s0.31 0.118 0.471 0.118c0.091 0 0.182-0.016 0.276-0.048s0.179-0.079 0.257-0.143c0.077-0.064 0.141-0.143 0.189-0.236s0.074-0.203 0.074-0.326c0-0.174-0.049-0.307-0.147-0.399s-0.219-0.168-0.364-0.23c-0.145-0.061-0.303-0.121-0.474-0.178s-0.33-0.137-0.474-0.239c-0.145-0.102-0.267-0.24-0.364-0.412-0.098-0.173-0.147-0.406-0.147-0.699 0-0.132 0.025-0.272 0.076-0.421s0.131-0.285 0.24-0.409c0.109-0.123 0.249-0.226 0.42-0.309s0.377-0.124 0.618-0.124zM78.813 19.472c0.237 0 0.437 0.047 0.601 0.14s0.298 0.216 0.404 0.367c0.106 0.151 0.181 0.322 0.229 0.511 0.046 0.189 0.070 0.382 0.070 0.578v0.204h-2.146c0 0.132 0.026 0.252 0.077 0.361 0.050 0.108 0.117 0.201 0.2 0.277s0.179 0.136 0.287 0.179c0.109 0.042 0.222 0.064 0.339 0.064 0.158 0 0.295-0.042 0.412-0.124s0.224-0.192 0.322-0.329l0.383 0.332c-0.282 0.413-0.676 0.619-1.185 0.619-0.211 0-0.403-0.041-0.573-0.121s-0.316-0.192-0.434-0.335c-0.119-0.142-0.21-0.311-0.275-0.504-0.063-0.194-0.095-0.403-0.095-0.629s0.035-0.435 0.104-0.629c0.070-0.194 0.166-0.362 0.288-0.504s0.268-0.254 0.437-0.335c0.17-0.081 0.354-0.121 0.554-0.121zM72.852 19.472c0.236 0 0.437 0.047 0.601 0.14s0.298 0.216 0.404 0.367c0.106 0.151 0.181 0.322 0.228 0.511s0.071 0.382 0.071 0.578v0.204h-2.146c0 0.132 0.026 0.252 0.077 0.361 0.050 0.108 0.117 0.201 0.2 0.277s0.179 0.136 0.288 0.179c0.109 0.042 0.222 0.064 0.339 0.064 0.158 0 0.295-0.042 0.412-0.124s0.224-0.192 0.322-0.329l0.384 0.332c-0.282 0.413-0.677 0.619-1.185 0.619-0.212 0-0.403-0.041-0.573-0.121s-0.316-0.192-0.435-0.335-0.21-0.311-0.274-0.504c-0.063-0.194-0.096-0.403-0.096-0.629s0.035-0.435 0.105-0.629c0.070-0.194 0.165-0.362 0.288-0.504 0.122-0.142 0.268-0.254 0.437-0.335s0.354-0.121 0.554-0.121zM65.213 19.472c0.237 0 0.437 0.047 0.601 0.14s0.298 0.216 0.404 0.367c0.106 0.151 0.181 0.322 0.229 0.511 0.046 0.189 0.069 0.382 0.069 0.578v0.204h-2.145c0 0.132 0.026 0.252 0.077 0.361s0.117 0.201 0.201 0.277c0.082 0.077 0.179 0.136 0.287 0.179s0.222 0.064 0.339 0.064c0.158 0 0.295-0.042 0.412-0.124s0.223-0.192 0.322-0.329l0.383 0.332c-0.282 0.413-0.676 0.619-1.185 0.619-0.211 0-0.402-0.041-0.573-0.121s-0.316-0.192-0.434-0.335c-0.118-0.142-0.21-0.311-0.274-0.504s-0.095-0.403-0.095-0.629c0-0.225 0.034-0.435 0.104-0.629s0.166-0.362 0.288-0.504c0.123-0.142 0.268-0.254 0.437-0.335s0.354-0.121 0.553-0.121h0.001zM62.537 19.478c0.195 0 0.383 0.039 0.562 0.118s0.334 0.198 0.466 0.36l-0.384 0.396c-0.094-0.111-0.193-0.195-0.296-0.252-0.105-0.057-0.227-0.086-0.371-0.086-0.139 0-0.26 0.029-0.364 0.086s-0.19 0.137-0.26 0.236c-0.069 0.1-0.122 0.215-0.157 0.345-0.036 0.129-0.053 0.264-0.053 0.404s0.020 0.274 0.061 0.399c0.042 0.126 0.1 0.236 0.175 0.329s0.165 0.167 0.271 0.22c0.106 0.053 0.225 0.079 0.356 0.079 0.142 0 0.265-0.028 0.366-0.086s0.197-0.141 0.283-0.252l0.362 0.408c-0.132 0.166-0.285 0.286-0.461 0.358-0.174 0.072-0.361 0.108-0.556 0.108-0.207 0-0.397-0.038-0.567-0.115s-0.319-0.184-0.443-0.322c-0.124-0.138-0.22-0.304-0.288-0.498s-0.102-0.407-0.102-0.641 0.034-0.449 0.102-0.645c0.068-0.196 0.163-0.364 0.285-0.504s0.269-0.25 0.44-0.328c0.171-0.079 0.362-0.118 0.573-0.118zM53.087 19.472c0.237 0 0.438 0.047 0.601 0.14s0.298 0.216 0.403 0.367c0.106 0.151 0.182 0.322 0.229 0.511 0.046 0.189 0.070 0.382 0.070 0.578v0.204h-2.145c0 0.132 0.025 0.252 0.076 0.361s0.117 0.201 0.201 0.277c0.082 0.077 0.178 0.136 0.288 0.179s0.222 0.064 0.339 0.064c0.158 0 0.295-0.042 0.412-0.124 0.116-0.083 0.223-0.192 0.321-0.329l0.384 0.332c-0.282 0.413-0.677 0.619-1.186 0.619-0.211 0-0.401-0.041-0.573-0.121s-0.316-0.192-0.434-0.335c-0.118-0.142-0.21-0.311-0.274-0.504s-0.096-0.403-0.096-0.629c0-0.225 0.034-0.435 0.105-0.629s0.165-0.362 0.288-0.504c0.122-0.142 0.268-0.254 0.437-0.335s0.354-0.121 0.553-0.121zM7.676 10.006l-0.803 0.002v12.602h4.202v-3.744l0.761-0.032c0.982-0.044 1.829-0.108 2.536-0.352 1.021-0.354 1.716-0.805 2.486-1.587 1.742-1.771 1.311-4.836-0.758-6.073-0.674-0.403-1.461-0.745-2.209-0.778-1.274-0.055-2.55-0.060-3.849-0.054l-2.365 0.015zM75.030 19.548l0.802 2.316 0.768-2.316h0.542l-1.050 3.025h-0.559l-1.090-3.025h0.587zM57.355 19.548l0.802 2.316 0.768-2.316h0.541l-1.050 3.025h-0.558l-1.090-3.025h0.587zM56.322 19.472c0.083 0 0.158 0.013 0.225 0.038l-0.022 0.619c-0.041-0.013-0.082-0.024-0.124-0.032s-0.083-0.013-0.124-0.013c-0.248 0-0.438 0.079-0.57 0.236s-0.198 0.402-0.198 0.734v1.518h-0.508v-3.025h0.508v0.466h0.011c0.034-0.081 0.079-0.155 0.135-0.22 0.057-0.066 0.12-0.122 0.189-0.169s0.146-0.084 0.229-0.112c0.083-0.027 0.165-0.042 0.249-0.042zM81.274 17.749v4.824h-0.508v-4.824h0.508zM69.368 18.055v3.943h1.835v0.574h-2.377v-4.518h0.542zM60.46 19.548v3.025h-0.508v-3.025h0.508zM85.333 18.055v4.518h-0.542v-3.816l-0.734 0.766-0.316-0.428 1.113-1.040h0.479zM35.952 9.925h-4.266v12.6h4.266v-12.6zM53.075 19.931c-0.124 0-0.238 0.027-0.342 0.080-0.103 0.053-0.191 0.122-0.262 0.207s-0.128 0.18-0.167 0.284c-0.039 0.104-0.058 0.207-0.058 0.309h1.603c-0.004-0.128-0.022-0.244-0.053-0.351-0.033-0.106-0.081-0.199-0.145-0.278s-0.144-0.14-0.239-0.185c-0.097-0.045-0.209-0.067-0.337-0.067zM78.801 19.931c-0.125 0-0.238 0.027-0.341 0.080-0.104 0.053-0.191 0.122-0.262 0.207s-0.127 0.18-0.167 0.284c-0.039 0.104-0.060 0.207-0.060 0.309h1.604c-0.004-0.128-0.022-0.244-0.053-0.351s-0.080-0.199-0.144-0.278-0.144-0.14-0.24-0.185c-0.096-0.045-0.209-0.067-0.336-0.067zM72.84 19.931c-0.125 0-0.239 0.027-0.342 0.080s-0.191 0.122-0.262 0.207c-0.072 0.085-0.127 0.18-0.167 0.284-0.039 0.104-0.059 0.207-0.059 0.309h1.604c-0.004-0.128-0.022-0.244-0.053-0.351-0.033-0.106-0.081-0.199-0.144-0.278-0.065-0.079-0.144-0.14-0.24-0.185-0.097-0.045-0.209-0.067-0.336-0.067zM65.201 19.931c-0.124 0-0.238 0.027-0.341 0.080s-0.19 0.122-0.262 0.207c-0.071 0.085-0.127 0.18-0.167 0.284-0.039 0.104-0.059 0.207-0.059 0.309h1.604c-0.004-0.128-0.022-0.244-0.054-0.351s-0.079-0.199-0.144-0.278c-0.063-0.079-0.144-0.14-0.239-0.185-0.097-0.045-0.209-0.067-0.337-0.067zM60.206 18.043c0.101 0 0.189 0.042 0.262 0.124s0.109 0.181 0.109 0.297c0 0.114-0.036 0.214-0.109 0.296s-0.162 0.125-0.262 0.125c-0.102 0-0.19-0.042-0.263-0.125s-0.11-0.182-0.11-0.296c0-0.115 0.036-0.214 0.11-0.297s0.161-0.124 0.263-0.124zM13.443 13.325c0.262 0.409 0.293 1.292 0.078 1.749-0.415 0.881-1.184 0.935-2.013 0.926l-0.402-0.006v-3.325c0.912-0.197 1.8-0.182 2.337 0.656zM57.321 9.8c0.219 0 0.427 0.034 0.627 0.102s0.375 0.206 0.525 0.414l-0.441 0.453c-0.068-0.119-0.164-0.215-0.288-0.287s-0.265-0.109-0.423-0.109c-0.15 0-0.275 0.022-0.375 0.067s-0.18 0.102-0.24 0.173-0.102 0.146-0.127 0.226c-0.025 0.081-0.037 0.156-0.037 0.224 0 0.192 0.049 0.338 0.147 0.44 0.099 0.102 0.22 0.185 0.365 0.249s0.302 0.121 0.474 0.172c0.171 0.052 0.33 0.123 0.474 0.214 0.146 0.092 0.267 0.215 0.364 0.37s0.147 0.369 0.147 0.641c0 0.217-0.036 0.413-0.11 0.587-0.073 0.174-0.172 0.321-0.296 0.44-0.125 0.12-0.271 0.211-0.441 0.275s-0.35 0.096-0.542 0.096c-0.255 0-0.498-0.052-0.728-0.153s-0.412-0.259-0.547-0.471l0.446-0.435c0.098 0.166 0.223 0.288 0.375 0.367s0.31 0.118 0.471 0.118c0.091 0 0.183-0.016 0.277-0.048s0.18-0.079 0.257-0.143c0.078-0.065 0.141-0.144 0.189-0.237 0.050-0.093 0.074-0.202 0.074-0.326 0-0.174-0.049-0.307-0.147-0.399-0.098-0.091-0.219-0.168-0.364-0.23-0.146-0.061-0.303-0.121-0.475-0.179-0.171-0.057-0.329-0.137-0.474-0.239s-0.267-0.24-0.364-0.411c-0.098-0.173-0.148-0.406-0.148-0.699 0-0.132 0.026-0.272 0.076-0.421 0.051-0.149 0.131-0.285 0.241-0.409s0.249-0.226 0.42-0.309c0.171-0.083 0.378-0.124 0.618-0.124zM54.182 9.8c0.219 0 0.427 0.034 0.626 0.102 0.2 0.068 0.375 0.206 0.526 0.414l-0.44 0.453c-0.068-0.119-0.164-0.215-0.288-0.287s-0.266-0.109-0.424-0.109c-0.15 0-0.276 0.022-0.375 0.067s-0.18 0.102-0.239 0.173c-0.061 0.070-0.103 0.146-0.127 0.226s-0.037 0.156-0.037 0.224c0 0.192 0.049 0.338 0.147 0.44s0.219 0.185 0.364 0.249c0.145 0.064 0.303 0.121 0.475 0.172 0.171 0.052 0.33 0.123 0.474 0.214 0.146 0.092 0.267 0.215 0.364 0.37 0.099 0.155 0.147 0.369 0.147 0.641 0 0.217-0.036 0.413-0.109 0.587-0.074 0.174-0.173 0.321-0.297 0.44s-0.271 0.211-0.441 0.275c-0.169 0.064-0.349 0.096-0.541 0.096-0.256 0-0.499-0.052-0.728-0.153s-0.412-0.259-0.548-0.471l0.446-0.435c0.098 0.166 0.223 0.288 0.375 0.367 0.153 0.078 0.31 0.118 0.472 0.118 0.090 0 0.182-0.016 0.276-0.048s0.18-0.079 0.257-0.143c0.077-0.065 0.14-0.144 0.189-0.237 0.049-0.093 0.073-0.202 0.073-0.326 0-0.174-0.049-0.307-0.146-0.399-0.098-0.091-0.219-0.168-0.364-0.23-0.146-0.061-0.303-0.121-0.475-0.179-0.171-0.057-0.329-0.137-0.474-0.239s-0.266-0.24-0.364-0.411c-0.098-0.173-0.147-0.406-0.147-0.699 0-0.132 0.026-0.272 0.076-0.421s0.131-0.285 0.241-0.409c0.109-0.123 0.249-0.226 0.421-0.309 0.171-0.083 0.377-0.124 0.618-0.124zM62.717 9.8c0.264 0 0.522 0.058 0.777 0.173s0.462 0.29 0.624 0.529l-0.452 0.389c-0.113-0.166-0.256-0.293-0.429-0.383s-0.352-0.134-0.536-0.134c-0.226 0-0.43 0.048-0.613 0.144s-0.339 0.226-0.469 0.392c-0.13 0.166-0.23 0.361-0.302 0.584-0.071 0.223-0.107 0.462-0.107 0.717 0 0.238 0.034 0.464 0.102 0.677s0.165 0.4 0.293 0.561c0.128 0.162 0.284 0.289 0.469 0.383s0.393 0.14 0.627 0.14c0.229 0 0.431-0.053 0.604-0.16s0.32-0.255 0.441-0.447l0.457 0.389-0.046 0.066c-0.029 0.038-0.066 0.083-0.111 0.135-0.075 0.087-0.175 0.174-0.299 0.261s-0.274 0.164-0.449 0.23c-0.174 0.066-0.377 0.099-0.606 0.099-0.316 0-0.601-0.068-0.855-0.204-0.255-0.136-0.47-0.315-0.65-0.536-0.179-0.221-0.315-0.471-0.409-0.75s-0.141-0.561-0.141-0.846c0-0.349 0.051-0.671 0.153-0.967 0.101-0.296 0.243-0.551 0.426-0.766s0.403-0.381 0.658-0.501c0.255-0.119 0.538-0.179 0.846-0.179zM70.661 10.559v0.85h0.729v0.497h-0.729v1.372c0 0.085 0.002 0.17 0.006 0.252s0.018 0.157 0.042 0.224c0.024 0.066 0.062 0.119 0.113 0.159 0.050 0.040 0.125 0.060 0.222 0.060 0.060 0 0.122-0.007 0.187-0.019 0.063-0.013 0.122-0.036 0.174-0.070v0.523c-0.060 0.038-0.138 0.065-0.234 0.079s-0.171 0.023-0.222 0.023c-0.196 0-0.348-0.031-0.455-0.093s-0.186-0.141-0.237-0.239c-0.051-0.098-0.081-0.208-0.090-0.329-0.010-0.121-0.015-0.243-0.015-0.367v-1.576h-0.587v-0.498h0.587v-0.849h0.509zM82.453 9.608v4.824h-0.508v-0.433h-0.011c-0.099 0.161-0.233 0.287-0.404 0.375-0.172 0.089-0.347 0.134-0.529 0.134-0.207 0-0.394-0.041-0.561-0.121-0.168-0.082-0.311-0.194-0.429-0.339s-0.21-0.312-0.274-0.504c-0.065-0.191-0.097-0.4-0.097-0.625s0.032-0.435 0.097-0.629c0.063-0.193 0.155-0.362 0.274-0.504s0.261-0.254 0.429-0.335c0.167-0.081 0.354-0.121 0.561-0.121 0.193 0 0.373 0.046 0.542 0.137s0.299 0.215 0.39 0.373h0.011v-2.233h0.508zM77.858 11.331c0.237 0 0.438 0.047 0.602 0.14s0.298 0.216 0.403 0.367c0.106 0.151 0.182 0.321 0.229 0.51s0.070 0.382 0.070 0.578v0.204h-2.145c0 0.132 0.025 0.252 0.076 0.361s0.117 0.201 0.201 0.277c0.083 0.077 0.179 0.137 0.287 0.179s0.222 0.064 0.339 0.064c0.158 0 0.295-0.042 0.412-0.124s0.223-0.192 0.321-0.329l0.384 0.332c-0.282 0.413-0.677 0.619-1.185 0.619-0.212 0-0.402-0.041-0.573-0.122s-0.316-0.192-0.435-0.334c-0.118-0.143-0.21-0.311-0.274-0.504-0.064-0.194-0.096-0.403-0.096-0.629 0-0.225 0.034-0.435 0.105-0.629 0.069-0.193 0.165-0.362 0.288-0.504s0.268-0.254 0.437-0.335c0.169-0.081 0.354-0.121 0.553-0.121v-0.001zM65.952 11.331c0.238 0 0.437 0.047 0.602 0.14s0.298 0.216 0.403 0.367c0.106 0.151 0.182 0.321 0.229 0.51 0.046 0.189 0.070 0.382 0.070 0.578v0.204h-2.145c0 0.132 0.026 0.252 0.077 0.361 0.050 0.109 0.117 0.201 0.2 0.277s0.179 0.137 0.287 0.179c0.109 0.042 0.222 0.064 0.34 0.064 0.158 0 0.295-0.042 0.412-0.124s0.223-0.192 0.322-0.329l0.383 0.332c-0.282 0.413-0.677 0.619-1.186 0.619-0.211 0-0.401-0.041-0.573-0.122s-0.316-0.192-0.435-0.334-0.21-0.311-0.274-0.504c-0.063-0.194-0.095-0.403-0.095-0.629 0-0.225 0.035-0.435 0.105-0.629s0.166-0.362 0.288-0.504c0.122-0.143 0.268-0.254 0.437-0.335s0.354-0.121 0.553-0.121v-0.001zM50.157 9.915c0.282 0 0.53 0.036 0.742 0.108s0.397 0.169 0.553 0.29c0.156 0.121 0.286 0.26 0.389 0.418s0.185 0.319 0.246 0.485c0.060 0.166 0.103 0.332 0.13 0.498s0.040 0.319 0.040 0.459c0 0.289-0.048 0.569-0.141 0.84-0.095 0.27-0.235 0.51-0.418 0.721s-0.413 0.38-0.687 0.508c-0.272 0.128-0.588 0.191-0.945 0.191h-1.304v-4.518h1.394zM74.511 9.532c0.057 0 0.116 0.002 0.178 0.006s0.129 0.017 0.201 0.038l-0.057 0.511c-0.049-0.021-0.095-0.036-0.141-0.045s-0.094-0.013-0.147-0.013c-0.094 0-0.17 0.016-0.226 0.048-0.057 0.033-0.101 0.078-0.133 0.138s-0.053 0.13-0.062 0.214c-0.010 0.083-0.014 0.178-0.014 0.284v0.696h0.605v0.497h-0.61v2.527h-0.508v-2.527h-0.575v-0.498h0.575v-0.676c0-0.404 0.069-0.705 0.206-0.903s0.373-0.296 0.708-0.296l0.001-0.001zM75.826 11.408v3.025h-0.508v-3.025h0.508zM72.591 11.408v3.025h-0.508v-3.025h0.508zM69.187 11.331c0.083 0 0.158 0.013 0.226 0.038l-0.022 0.619c-0.041-0.013-0.083-0.024-0.124-0.033-0.041-0.008-0.082-0.012-0.124-0.012-0.249 0-0.438 0.079-0.571 0.236-0.131 0.158-0.197 0.402-0.197 0.734v1.518h-0.508v-3.024h0.508v0.466h0.011c0.034-0.081 0.079-0.155 0.136-0.22s0.119-0.122 0.189-0.169c0.069-0.047 0.145-0.084 0.229-0.112 0.082-0.028 0.165-0.042 0.248-0.042zM81.065 11.867c-0.136 0-0.258 0.027-0.367 0.080s-0.202 0.126-0.277 0.216c-0.075 0.092-0.134 0.203-0.175 0.332s-0.061 0.271-0.061 0.424c0 0.153 0.020 0.295 0.061 0.425s0.1 0.24 0.175 0.331c0.075 0.092 0.168 0.164 0.277 0.217 0.109 0.054 0.231 0.080 0.367 0.080 0.135 0 0.257-0.026 0.366-0.080 0.109-0.053 0.202-0.126 0.276-0.217 0.076-0.091 0.134-0.202 0.175-0.331 0.042-0.13 0.062-0.272 0.062-0.425s-0.020-0.294-0.062-0.424c-0.041-0.13-0.099-0.241-0.175-0.332-0.075-0.091-0.167-0.163-0.276-0.216s-0.231-0.080-0.366-0.080zM50.117 10.489h-0.813v3.369h0.684c0.229 0 0.446-0.035 0.652-0.105s0.385-0.175 0.539-0.316c0.155-0.14 0.277-0.316 0.368-0.526s0.136-0.457 0.136-0.737c0-0.144-0.021-0.313-0.063-0.507s-0.119-0.378-0.234-0.552c-0.115-0.175-0.273-0.322-0.477-0.444s-0.467-0.181-0.79-0.181zM77.847 11.79c-0.124 0-0.238 0.027-0.342 0.080s-0.191 0.122-0.262 0.207c-0.071 0.085-0.127 0.18-0.167 0.285-0.039 0.103-0.059 0.206-0.059 0.309h1.604c-0.004-0.128-0.022-0.244-0.054-0.351s-0.080-0.199-0.144-0.278-0.144-0.14-0.239-0.185c-0.097-0.045-0.209-0.067-0.337-0.067zM65.94 11.79c-0.124 0-0.237 0.027-0.341 0.080s-0.19 0.122-0.262 0.207c-0.071 0.085-0.128 0.18-0.167 0.285-0.039 0.103-0.059 0.206-0.059 0.309h1.603c-0.004-0.128-0.021-0.244-0.053-0.351s-0.080-0.199-0.145-0.278c-0.063-0.079-0.144-0.14-0.239-0.185-0.097-0.045-0.209-0.067-0.337-0.067zM72.337 9.902c0.102 0 0.189 0.042 0.262 0.124s0.11 0.182 0.11 0.296c0 0.115-0.037 0.214-0.11 0.297s-0.161 0.124-0.262 0.124c-0.101 0-0.189-0.042-0.262-0.124s-0.11-0.182-0.11-0.297c0-0.114 0.037-0.213 0.11-0.296s0.161-0.124 0.262-0.124zM75.572 9.902c0.102 0 0.189 0.042 0.263 0.124 0.073 0.083 0.109 0.182 0.109 0.296s-0.037 0.214-0.109 0.297c-0.074 0.083-0.161 0.124-0.263 0.124s-0.189-0.042-0.262-0.124c-0.073-0.083-0.11-0.182-0.11-0.297s0.037-0.213 0.11-0.296c0.073-0.083 0.161-0.124 0.262-0.124zM33.78 3.039c-1.582-0.004-2.603 1.070-2.614 2.751-0.012 1.677 1.018 2.788 2.586 2.792 1.596 0.004 2.603-1.061 2.606-2.758 0.003-1.695-1.001-2.78-2.578-2.785z"></path>
</symbol>

<symbol id="icon-footer-logo" viewBox="0 0 301 32">
<path fill="#fff" style="fill: var(--color1, #fff)" d="M49.402 20.114c0.207 0.198 0.32 0.489 0.308 0.791 0 0.851-0.45 1.276-1.344 1.276h-7.701c-0.591 0.040-1.102-0.456-1.137-1.107-0.002-0.040-0.002-0.080-0.001-0.121 0-0.438 0.164-0.853 0.454-1.151l6.357-7.517h-4.921c-0.321 0.024-0.641-0.078-0.899-0.289-0.211-0.205-0.324-0.504-0.308-0.813 0-0.835 0.447-1.252 1.344-1.252h7.36c0.311-0.017 0.615 0.116 0.831 0.363 0.2 0.233 0.311 0.544 0.307 0.866-0.008 0.441-0.172 0.863-0.455 1.176l-6.334 7.492h5.24c0.321-0.024 0.642 0.078 0.901 0.288zM53.469 14.939h5.195c0.068-0.826-0.143-1.652-0.592-2.316-0.437-0.541-1.075-0.83-1.732-0.789-1.61 0-2.566 1.035-2.87 3.106v-0.001zM60.818 16.33c-0.18 0.193-0.424 0.299-0.673 0.288h-6.766c-0.019 0.926 0.285 1.823 0.852 2.506 0.608 0.601 1.408 0.908 2.223 0.853 0.488 0.007 0.977-0.065 1.447-0.212 0.452-0.154 0.885-0.367 1.287-0.641 0.173-0.11 0.369-0.169 0.569-0.175 0.235-0.011 0.462 0.106 0.604 0.313 0.148 0.222 0.225 0.49 0.216 0.764 0.002 0.48-0.211 0.93-0.569 1.203-0.495 0.378-1.046 0.659-1.629 0.827-0.686 0.217-1.394 0.328-2.107 0.325-1.034 0.027-2.058-0.227-2.985-0.738-0.83-0.469-1.515-1.199-1.971-2.093-0.478-0.967-0.718-2.057-0.694-3.159-0.019-1.209 0.224-2.406 0.705-3.493 0.441-0.993 1.128-1.826 1.983-2.406 0.879-0.585 1.889-0.885 2.917-0.866 1.341-0.090 2.652 0.467 3.588 1.529 0.906 1.226 1.358 2.782 1.264 4.36 0.018 0.299-0.080 0.593-0.262 0.813h0.001zM72.542 10.742c0.7 0.918 1.047 2.101 0.97 3.296 0 0.316-0.009 0.559-0.026 0.727l-0.455 6.063c-0.010 0.421-0.175 0.818-0.456 1.101-0.289 0.275-0.666 0.418-1.047 0.402-0.376 0.025-0.746-0.12-1.026-0.401-0.251-0.297-0.369-0.702-0.317-1.103l0.456-5.937c0.121-1.855-0.547-2.782-2.004-2.782-0.732-0.045-1.445 0.256-1.961 0.826-0.505 0.642-0.794 1.456-0.82 2.306l-0.433 5.587c-0.010 0.421-0.175 0.818-0.456 1.101-0.289 0.275-0.666 0.418-1.047 0.402-0.373 0.027-0.743-0.119-1.015-0.401-0.244-0.301-0.365-0.702-0.33-1.103l0.73-9.723c0.001-0.402 0.17-0.785 0.455-1.039 0.305-0.264 0.685-0.401 1.072-0.388 0.353-0.023 0.698 0.113 0.957 0.376 0.233 0.268 0.334 0.64 0.274 1.003l-0.024 0.476c0.388-0.607 0.914-1.091 1.528-1.404 0.669-0.34 1.402-0.513 2.142-0.5 1.046-0.083 2.075 0.322 2.836 1.115v-0.001zM27.711 9.282c-1.161-1.968-3.479-2.671-5.395-1.638-2.045 1.144-2.861 3.893-1.824 6.142 0.592 1.282 1.698 2.184 2.986 2.434-0.157 5.422-4.281 9.681-9.214 9.508-4.79-0.167-8.607-4.461-8.651-9.731-0.008-4.061 2.287-7.695 5.751-9.105 0.666-0.264 1.051-1.031 0.897-1.792l-0.010-0.047c-0.17-0.833 0.306-1.658 1.061-1.845 0.062-0.014 0.125-0.025 0.188-0.031 0.347-0.035 0.698-0.054 1.048-0.054 0.434 0 0.87 0.028 1.3 0.079 0.781 0.095 1.485-0.527 1.569-1.384 0.004-0.028 0.006-0.059 0.008-0.088 0.020-0.851-0.568-1.573-1.339-1.644-0.511-0.061-1.025-0.089-1.538-0.089-8.034 0-14.548 7.164-14.548 16.001 0 8.838 6.514 15.999 14.548 15.999 8.035 0 14.548-7.162 14.548-15.999 0-1.565-0.287-4.936-1.385-6.718z"></path>
<path fill="#fff" style="fill: var(--color1, #fff)" d="M20.036 1.214c0.831 0 1.507 0.743 1.507 1.658s-0.676 1.658-1.507 1.658c-0.833 0-1.507-0.743-1.507-1.658s0.674-1.658 1.507-1.658zM84.913 14.485c0.831 0 1.507 0.741 1.507 1.658 0 0.915-0.676 1.658-1.507 1.658-0.833 0-1.508-0.743-1.508-1.658 0-0.918 0.676-1.658 1.508-1.658zM103.946 10.59c0.149 0.179 0.225 0.402 0.225 0.668 0 0.346-0.116 0.65-0.343 0.916l-6.446 7.77h5.508c0.285 0 0.505 0.079 0.662 0.236 0.155 0.157 0.235 0.367 0.235 0.634 0 0.312-0.086 0.551-0.257 0.716-0.17 0.164-0.42 0.246-0.747 0.246h-7.428c-0.274 0-0.483-0.085-0.631-0.258-0.149-0.169-0.223-0.391-0.223-0.657 0-0.312 0.113-0.602 0.34-0.868l6.469-7.841h-5.146c-0.285 0-0.505-0.079-0.662-0.236-0.154-0.157-0.234-0.367-0.234-0.634 0-0.642 0.328-0.962 0.982-0.962h7.067c0.27 0 0.479 0.089 0.63 0.268l-0.001 0.001zM108.401 12.62c-0.514 0.565-0.842 1.384-0.983 2.465h5.507c0.029-1.080-0.175-1.902-0.608-2.465-0.434-0.565-1.050-0.844-1.846-0.844-0.869 0-1.559 0.281-2.070 0.844zM114.581 16.2c-0.151 0.165-0.352 0.247-0.61 0.247h-6.639c0.015 1.158 0.285 2.054 0.812 2.69 0.527 0.633 1.287 0.95 2.283 0.95s1.921-0.313 2.775-0.94c0.157-0.11 0.314-0.164 0.47-0.164 0.199 0 0.362 0.086 0.49 0.258 0.128 0.172 0.193 0.374 0.193 0.61 0 0.361-0.141 0.665-0.425 0.916-0.385 0.343-0.915 0.626-1.591 0.844-0.677 0.22-1.355 0.329-2.039 0.329-1.025 0-1.922-0.227-2.689-0.681-0.771-0.455-1.362-1.104-1.783-1.949-0.42-0.847-0.63-1.823-0.63-2.934 0-1.238 0.216-2.337 0.651-3.3 0.433-0.963 1.041-1.709 1.825-2.241 0.782-0.532 1.687-0.801 2.711-0.801 1.424 0 2.516 0.466 3.276 1.398s1.144 2.282 1.144 4.050c0 0.313-0.076 0.552-0.225 0.716h0.001zM123.715 10.272c0.164 0.157 0.247 0.384 0.247 0.681 0 0.72-0.356 1.111-1.068 1.173l-0.576 0.071c-0.983 0.11-1.711 0.424-2.189 0.939-0.475 0.517-0.749 1.278-0.822 2.279l-0.405 5.351c-0.028 0.391-0.149 0.678-0.362 0.857-0.215 0.181-0.478 0.271-0.79 0.271-0.313 0-0.565-0.095-0.758-0.282-0.191-0.188-0.274-0.469-0.244-0.846l0.703-9.602c0.014-0.345 0.136-0.61 0.364-0.799 0.227-0.186 0.491-0.28 0.789-0.28 0.285 0 0.511 0.089 0.684 0.268 0.171 0.181 0.249 0.442 0.235 0.787l-0.064 0.964c0.711-1.206 1.836-1.871 3.373-1.997l0.236-0.023c0.27-0.031 0.487 0.031 0.649 0.186zM131.64 18.841c0.527-0.813 0.793-1.908 0.793-3.287 0-1.173-0.248-2.070-0.738-2.688-0.491-0.617-1.194-0.926-2.102-0.926-0.998 0-1.76 0.407-2.287 1.22-0.524 0.815-0.788 1.91-0.788 3.287 0 1.19 0.245 2.090 0.735 2.701 0.492 0.609 1.199 0.915 2.124 0.915 0.984 0 1.737-0.408 2.263-1.221zM126.709 21.26c-0.753-0.453-1.336-1.103-1.749-1.949-0.414-0.847-0.619-1.823-0.619-2.936 0-1.285 0.217-2.4 0.651-3.356 0.433-0.954 1.046-1.69 1.835-2.207 0.79-0.517 1.705-0.775 2.743-0.775 1.024 0 1.914 0.23 2.667 0.692 0.755 0.463 1.339 1.113 1.751 1.949 0.414 0.837 0.619 1.821 0.619 2.947 0 1.284-0.216 2.4-0.65 3.346-0.437 0.946-1.047 1.679-1.837 2.194-0.789 0.517-1.709 0.775-2.762 0.775-1.011 0-1.894-0.227-2.649-0.681zM145.217 12.62c-0.512 0.565-0.839 1.384-0.982 2.465h5.508c0.028-1.080-0.175-1.902-0.609-2.465-0.433-0.565-1.049-0.844-1.846-0.844-0.868 0-1.558 0.281-2.070 0.844zM151.398 16.2c-0.15 0.165-0.352 0.247-0.609 0.247h-6.638c0.014 1.158 0.284 2.054 0.813 2.69 0.525 0.633 1.287 0.95 2.285 0.95 0.995 0 1.917-0.313 2.773-0.94 0.156-0.11 0.314-0.164 0.47-0.164 0.199 0 0.362 0.086 0.491 0.258 0.128 0.172 0.191 0.374 0.191 0.61 0 0.361-0.142 0.665-0.427 0.916-0.384 0.343-0.913 0.626-1.589 0.844-0.675 0.22-1.355 0.329-2.040 0.329-1.024 0-1.921-0.227-2.688-0.681-0.769-0.455-1.365-1.104-1.782-1.949-0.42-0.847-0.63-1.823-0.63-2.934 0-1.238 0.216-2.337 0.651-3.3s1.042-1.709 1.824-2.241c0.783-0.532 1.686-0.801 2.71-0.801 1.423 0 2.517 0.466 3.278 1.398s1.141 2.282 1.141 4.050c0 0.313-0.072 0.552-0.223 0.716zM157.786 7.784c-0.363 0.438-0.58 1.087-0.651 1.949l-0.045 0.587h2.115c0.285 0 0.502 0.078 0.651 0.234 0.149 0.155 0.224 0.367 0.224 0.633 0 0.642-0.327 0.963-0.981 0.963h-2.136l-0.619 8.616c-0.014 0.377-0.131 0.658-0.351 0.847-0.223 0.186-0.481 0.282-0.781 0.282s-0.547-0.096-0.747-0.282c-0.199-0.189-0.292-0.47-0.277-0.847l0.618-8.616h-1.259c-0.284 0-0.505-0.078-0.661-0.234-0.159-0.157-0.235-0.367-0.235-0.634 0-0.312 0.085-0.551 0.256-0.716 0.17-0.165 0.42-0.246 0.746-0.246h1.284l0.019-0.306c0.228-3.003 1.7-4.6 4.417-4.788l0.451-0.024c0.753-0.047 1.13 0.227 1.13 0.822 0 0.296-0.077 0.525-0.235 0.681-0.156 0.157-0.384 0.25-0.68 0.281l-0.579 0.047c-0.754 0.064-1.313 0.315-1.675 0.753zM166.029 7.784c-0.363 0.438-0.58 1.087-0.653 1.949l-0.042 0.587h2.113c0.287 0 0.502 0.078 0.651 0.234 0.149 0.155 0.224 0.367 0.224 0.633 0 0.642-0.328 0.963-0.981 0.963h-2.136l-0.619 8.616c-0.014 0.377-0.131 0.658-0.352 0.847-0.221 0.186-0.48 0.282-0.781 0.282-0.298 0-0.547-0.096-0.746-0.282-0.199-0.189-0.292-0.47-0.278-0.847l0.621-8.616h-1.259c-0.285 0-0.506-0.078-0.662-0.234-0.159-0.157-0.237-0.367-0.237-0.634 0-0.312 0.086-0.551 0.257-0.716 0.17-0.165 0.42-0.246 0.747-0.246h1.281l0.022-0.306c0.227-3.003 1.699-4.6 4.416-4.788l0.449-0.024c0.754-0.047 1.13 0.227 1.13 0.822 0 0.296-0.077 0.525-0.234 0.681-0.157 0.157-0.385 0.25-0.682 0.281l-0.579 0.047c-0.753 0.064-1.311 0.315-1.674 0.753zM176.114 18.841c0.526-0.813 0.79-1.908 0.79-3.287 0-1.173-0.245-2.070-0.737-2.688-0.49-0.617-1.192-0.926-2.101-0.926-0.999 0-1.759 0.407-2.286 1.22-0.527 0.815-0.787 1.91-0.787 3.287 0 1.19 0.243 2.090 0.735 2.701 0.491 0.609 1.198 0.915 2.123 0.915 0.984 0 1.735-0.408 2.264-1.221zM171.182 21.26c-0.754-0.453-1.336-1.103-1.75-1.949-0.41-0.847-0.619-1.823-0.619-2.936 0-1.285 0.218-2.4 0.653-3.356 0.433-0.954 1.045-1.69 1.837-2.207 0.787-0.517 1.704-0.775 2.741-0.775 1.025 0 1.914 0.23 2.669 0.692 0.755 0.463 1.336 1.113 1.752 1.949 0.412 0.837 0.619 1.821 0.619 2.947 0 1.284-0.218 2.4-0.651 3.346-0.435 0.946-1.048 1.679-1.838 2.194-0.787 0.517-1.709 0.775-2.762 0.775-1.011 0-1.894-0.227-2.648-0.681h-0.001zM187.994 10.272c0.164 0.157 0.246 0.384 0.246 0.681 0 0.72-0.356 1.111-1.066 1.173l-0.579 0.071c-0.979 0.11-1.71 0.424-2.187 0.939-0.476 0.517-0.75 1.278-0.822 2.279l-0.405 5.351c-0.029 0.391-0.149 0.678-0.362 0.857-0.216 0.181-0.477 0.271-0.79 0.271-0.314 0-0.565-0.095-0.761-0.282-0.189-0.188-0.271-0.469-0.242-0.846l0.704-9.602c0.014-0.345 0.135-0.61 0.363-0.799 0.227-0.186 0.49-0.28 0.787-0.28 0.285 0 0.513 0.089 0.686 0.268 0.17 0.181 0.249 0.442 0.232 0.787l-0.063 0.964c0.71-1.206 1.834-1.871 3.374-1.997l0.234-0.023c0.27-0.031 0.488 0.031 0.65 0.186zM192.906 17.527c-0.014 0.093-0.019 0.234-0.019 0.424 0 0.703 0.145 1.238 0.438 1.607 0.289 0.368 0.7 0.551 1.227 0.551 0.17 0 0.339-0.011 0.509-0.033 0.173-0.025 0.309-0.035 0.408-0.035 0.17 0 0.307 0.073 0.406 0.222 0.099 0.15 0.149 0.356 0.149 0.621 0 0.393-0.138 0.666-0.416 0.823-0.278 0.155-0.767 0.234-1.462 0.234-1.082 0-1.923-0.329-2.52-0.986-0.598-0.659-0.897-1.581-0.897-2.772 0-0.25 0.008-0.445 0.024-0.587l0.384-5.445h-1.261c-0.285 0-0.505-0.079-0.662-0.236-0.156-0.155-0.235-0.376-0.235-0.658 0-0.296 0.086-0.527 0.257-0.692 0.171-0.164 0.419-0.247 0.746-0.247h1.281l0.17-2.441c0.029-0.328 0.15-0.593 0.365-0.799 0.214-0.202 0.476-0.304 0.79-0.304 0.327 0 0.582 0.102 0.768 0.304 0.186 0.206 0.262 0.48 0.235 0.823l-0.173 2.417h2.115c0.27 0 0.483 0.079 0.643 0.234 0.154 0.157 0.231 0.367 0.231 0.635 0 0.642-0.327 0.963-0.981 0.963h-2.134l-0.385 5.376zM211.915 11.047c0.604 0.674 0.907 1.666 0.907 2.982 0 0.313-0.006 0.548-0.021 0.705l-0.427 6.032c-0.029 0.36-0.146 0.638-0.352 0.834-0.206 0.195-0.472 0.294-0.8 0.294-0.327 0-0.584-0.099-0.769-0.294-0.185-0.196-0.263-0.474-0.235-0.833l0.43-5.916c0.011-0.11 0.019-0.274 0.019-0.494 0-1.596-0.697-2.395-2.091-2.395-0.883 0-1.583 0.289-2.104 0.868s-0.814 1.387-0.886 2.419l-0.406 5.517c-0.028 0.36-0.145 0.638-0.351 0.834-0.207 0.195-0.474 0.294-0.801 0.294-0.326 0-0.58-0.099-0.758-0.294-0.177-0.196-0.259-0.474-0.243-0.833l0.704-9.602c0.014-0.329 0.135-0.593 0.363-0.788 0.228-0.196 0.498-0.294 0.81-0.294 0.298 0 0.534 0.095 0.705 0.282s0.248 0.446 0.235 0.774l-0.064 0.822c0.356-0.61 0.835-1.083 1.441-1.419 0.604-0.337 1.284-0.505 2.038-0.505 1.166 0 2.052 0.336 2.656 1.010zM222.24 18.841c0.527-0.813 0.79-1.908 0.79-3.287 0-1.173-0.246-2.070-0.737-2.688-0.488-0.617-1.192-0.926-2.101-0.926-0.998 0-1.759 0.407-2.286 1.22-0.525 0.815-0.789 1.91-0.789 3.287 0 1.19 0.245 2.090 0.736 2.701 0.491 0.609 1.199 0.915 2.123 0.915 0.984 0 1.738-0.408 2.264-1.221v0zM217.309 21.26c-0.753-0.453-1.338-1.103-1.752-1.949-0.41-0.847-0.616-1.823-0.616-2.936 0-1.285 0.216-2.4 0.65-3.356 0.435-0.954 1.045-1.69 1.837-2.207 0.79-0.517 1.704-0.775 2.744-0.775 1.024 0 1.914 0.23 2.666 0.692 0.755 0.463 1.338 1.113 1.752 1.949 0.413 0.837 0.619 1.821 0.619 2.947 0 1.284-0.216 2.4-0.651 3.346s-1.046 1.679-1.837 2.194c-0.789 0.517-1.71 0.775-2.763 0.775-1.010 0-1.894-0.227-2.648-0.681zM236.031 11.047c0.604 0.674 0.907 1.666 0.907 2.982 0 0.313-0.007 0.548-0.022 0.705l-0.426 6.032c-0.029 0.36-0.147 0.638-0.352 0.834-0.206 0.195-0.474 0.294-0.801 0.294s-0.583-0.099-0.769-0.294c-0.185-0.196-0.262-0.474-0.235-0.833l0.429-5.916c0.013-0.11 0.021-0.274 0.021-0.494 0-1.596-0.697-2.395-2.091-2.395-0.882 0-1.583 0.289-2.104 0.868s-0.813 1.387-0.886 2.419l-0.405 5.517c-0.028 0.36-0.146 0.638-0.352 0.834-0.205 0.195-0.474 0.294-0.801 0.294s-0.579-0.099-0.757-0.294c-0.178-0.196-0.26-0.474-0.245-0.833l0.703-9.602c0.015-0.329 0.138-0.593 0.363-0.788 0.23-0.196 0.498-0.294 0.811-0.294 0.299 0 0.534 0.095 0.707 0.282 0.171 0.188 0.248 0.446 0.234 0.774l-0.064 0.822c0.355-0.61 0.836-1.083 1.44-1.419 0.604-0.337 1.284-0.505 2.038-0.505 1.167 0 2.054 0.336 2.659 1.010zM246.902 18.889c0.533-0.784 0.799-1.864 0.799-3.241 0-1.189-0.249-2.105-0.746-2.748-0.499-0.641-1.208-0.962-2.134-0.962-0.938 0-1.679 0.395-2.221 1.185-0.54 0.791-0.811 1.868-0.811 3.228 0 1.207 0.249 2.126 0.749 2.759 0.497 0.635 1.208 0.952 2.133 0.952 0.954 0 1.697-0.391 2.232-1.173zM247.777 10.718c0.675 0.455 1.198 1.1 1.567 1.937 0.373 0.837 0.557 1.812 0.557 2.923 0 1.252-0.207 2.359-0.619 3.322-0.41 0.963-0.993 1.711-1.739 2.242-0.749 0.531-1.607 0.796-2.571 0.796-0.811 0-1.514-0.186-2.104-0.562s-1.043-0.908-1.355-1.597l-0.064 0.986c-0.015 0.36-0.128 0.638-0.342 0.834-0.213 0.195-0.479 0.294-0.789 0.294-0.314 0-0.563-0.099-0.749-0.294-0.185-0.196-0.269-0.474-0.256-0.833l1.067-14.58c0.014-0.329 0.135-0.593 0.365-0.798 0.227-0.203 0.498-0.306 0.81-0.306 0.313 0 0.559 0.095 0.735 0.282 0.181 0.188 0.262 0.446 0.249 0.775l-0.429 5.751c0.355-0.579 0.829-1.031 1.421-1.361 0.59-0.329 1.233-0.493 1.931-0.493 0.868 0 1.639 0.227 2.317 0.681zM257.56 19.312c0.513-0.579 0.803-1.323 0.874-2.231l0.045-0.657h-0.598c-1.053 0-1.878 0.062-2.477 0.188-0.598 0.124-1.024 0.329-1.28 0.609-0.257 0.282-0.385 0.675-0.385 1.175 0 0.548 0.174 0.983 0.523 1.303 0.351 0.321 0.822 0.48 1.421 0.48 0.739 0 1.366-0.288 1.88-0.867h-0.001zM260.698 14.076c0 0.297-0.007 0.525-0.024 0.681l-0.423 6.057c-0.017 0.345-0.12 0.61-0.313 0.799-0.192 0.186-0.444 0.282-0.758 0.282-0.312 0-0.561-0.107-0.746-0.319-0.184-0.212-0.263-0.481-0.234-0.81l0.040-0.798c-0.298 0.642-0.708 1.13-1.237 1.467-0.527 0.336-1.139 0.506-1.835 0.506-1.041 0-1.898-0.309-2.571-0.928-0.678-0.618-1.014-1.412-1.014-2.382 0-0.877 0.205-1.57 0.619-2.078 0.412-0.508 1.069-0.88 1.973-1.115 0.904-0.234 2.118-0.353 3.64-0.353h0.769l0.042-0.586c0.057-0.892-0.086-1.545-0.426-1.96-0.341-0.415-0.897-0.623-1.665-0.623-0.941 0-1.978 0.346-3.117 1.034-0.129 0.078-0.27 0.117-0.427 0.117-0.213 0-0.391-0.086-0.534-0.258-0.142-0.172-0.213-0.376-0.213-0.61 0-0.376 0.178-0.689 0.534-0.939 0.511-0.376 1.119-0.674 1.824-0.894 0.704-0.219 1.421-0.328 2.145-0.328 2.632 0 3.95 1.347 3.95 4.038zM271.975 11.047c0.605 0.674 0.907 1.666 0.907 2.982 0 0.313-0.007 0.548-0.021 0.705l-0.427 6.032c-0.029 0.36-0.146 0.638-0.353 0.834-0.206 0.195-0.472 0.294-0.8 0.294-0.327 0-0.583-0.099-0.767-0.294-0.186-0.196-0.266-0.474-0.237-0.833l0.427-5.916c0.013-0.11 0.021-0.274 0.021-0.494 0-1.596-0.697-2.395-2.091-2.395-0.882 0-1.583 0.289-2.104 0.868-0.518 0.579-0.815 1.387-0.885 2.419l-0.405 5.517c-0.029 0.36-0.146 0.638-0.352 0.834-0.209 0.195-0.474 0.294-0.801 0.294s-0.58-0.099-0.758-0.294c-0.177-0.196-0.26-0.474-0.245-0.833l0.704-9.602c0.013-0.329 0.135-0.593 0.362-0.788 0.23-0.196 0.499-0.294 0.811-0.294 0.299 0 0.534 0.095 0.705 0.282s0.248 0.446 0.237 0.774l-0.064 0.822c0.353-0.61 0.835-1.083 1.439-1.419 0.605-0.337 1.286-0.505 2.041-0.505 1.166 0 2.052 0.336 2.656 1.010zM283.967 20.11c0.171 0.186 0.257 0.414 0.257 0.68 0 0.282-0.111 0.539-0.331 0.775-0.223 0.236-0.466 0.353-0.736 0.353-0.257 0-0.486-0.117-0.685-0.353l-4.718-5.143-0.321 4.367c-0.028 0.361-0.149 0.635-0.36 0.822-0.213 0.189-0.469 0.282-0.768 0.282-0.314 0-0.57-0.102-0.769-0.306-0.2-0.203-0.285-0.484-0.256-0.844l1.046-14.532c0.014-0.36 0.134-0.634 0.36-0.823 0.228-0.186 0.493-0.282 0.792-0.282 0.313 0 0.562 0.099 0.747 0.295 0.184 0.196 0.271 0.48 0.255 0.857l-0.659 9.178 5.037-4.953c0.2-0.217 0.427-0.328 0.685-0.328 0.256 0 0.479 0.106 0.673 0.318 0.191 0.212 0.287 0.449 0.287 0.716 0 0.281-0.107 0.531-0.32 0.751l-4.057 3.921 3.843 4.249zM300.37 5.288c0.118 0.13 0.167 0.308 0.147 0.537l-0.399 5.504c-0.029 0.497-0.245 0.747-0.65 0.747-0.186 0-0.328-0.062-0.426-0.186-0.099-0.126-0.141-0.311-0.118-0.561l0.249-3.507-1.459 2.711c-0.099 0.174-0.199 0.299-0.296 0.374-0.099 0.075-0.218 0.113-0.356 0.113-0.127 0-0.234-0.038-0.316-0.113-0.085-0.076-0.16-0.2-0.228-0.374l-1.094-2.614-0.25 3.41c-0.010 0.25-0.075 0.435-0.193 0.561-0.118 0.124-0.274 0.186-0.47 0.186-0.188 0-0.331-0.062-0.43-0.186-0.097-0.126-0.142-0.311-0.131-0.561l0.398-5.505c0.019-0.226 0.095-0.405 0.23-0.537 0.132-0.128 0.285-0.193 0.463-0.193 0.257 0 0.452 0.168 0.591 0.503l1.535 3.8 2.081-3.798c0.188-0.336 0.416-0.504 0.682-0.504 0.175 0 0.323 0.065 0.441 0.195v0zM293.578 5.742c0 0.433-0.231 0.65-0.693 0.65h-1.447l-0.355 4.952c-0.010 0.227-0.083 0.407-0.228 0.537-0.141 0.13-0.313 0.195-0.509 0.195-0.198 0-0.356-0.065-0.48-0.195s-0.179-0.309-0.17-0.537l0.367-4.952h-1.43c-0.403 0-0.605-0.195-0.605-0.585 0-0.433 0.225-0.65 0.679-0.65h4.266c0.405 0 0.605 0.195 0.605 0.585z"></path>
</symbol>
</defs>
</svg>
